<?xml version="1.0" encoding="utf-8"?>
<!-- Generator: Adobe Illustrator 16.0.0, SVG Export Plug-In . SVG Version: 6.00 Build 0)  -->
<!DOCTYPE svg PUBLIC "-//W3C//DTD SVG 1.1//EN" "http://www.w3.org/Graphics/SVG/1.1/DTD/svg11.dtd">
<svg version="1.1" xmlns="http://www.w3.org/2000/svg" xmlns:xlink="http://www.w3.org/1999/xlink" x="0px" y="0px" width="1689px"
	 height="445.02344px" viewBox="0 0 1689 445.02344" enable-background="new 0 0 1689 445.02344" xml:space="preserve">
<g id="Layer_2">
	<path fill="#FFFFFF" d="M163.5625,49.02344v263.87109c1.89795,0.52539,3.46289,2.06543,3.4375,4.62891
		c-0.09277,9.29688,6.59473,17.0166,6.5,26.5c-0.00391,0.3877-0.05127,0.74707-0.12305,1.08887
		c0.97949,0.33789,1.854,1.09766,2.44043,2.3877c2.79053,6.13965,5.19629,12.44434,8.22461,18.47168H522.9375V49.02344H163.5625z"/>
</g>
<g id="Layer_1">
	<g>
		<g>
			<path fill="#6D6E71" d="M660.55762,334.82422c-15.31934,0-45.13184-1.6582-65.41895-6.21289
				c-5.38281-1.23926-8.69336-3.72754-8.69336-8.29102v-14.47656c0-3.72461,3.31055-6.20215,7.44727-6.20215
				c0.82715,0,1.24609,0,1.66113,0c19.87207,2.47754,50.09668,4.5498,65.00391,4.5498
				c26.91309,0,40.98633-7.06348,40.98633-29.39844c0-12.4248-7.45215-20.29004-31.04883-34.37402l-41.81543-24.8418
				c-25.26074-15.31152-42.23438-33.12793-42.23438-59.21777c0-43.05566,32.29199-55.0498,74.9375-55.0498
				c23.18359,0,45.13477,2.0625,64.58691,5.37207c5.38184,0.8291,7.87012,3.73047,7.87012,8.2793v13.66016
				c0,4.97559-2.89746,7.04297-7.03516,7.04297c-0.41309,0-0.83496,0-1.24121,0c-14.49414-1.25-40.99707-3.31152-64.18066-3.31152
				c-23.1875,0-38.50195,2.88867-38.50195,24.00684c0,12.42871,9.52344,20.30273,28.56152,31.46094l40.99609,24.44238
				c34.36621,20.2832,45.54199,38.10254,45.54199,62.53027C737.98047,317.02441,706.93066,334.82422,660.55762,334.82422z"/>
			<path fill="#6D6E71" d="M854.19141,334.82422c-60.86328,0-91.91992-40.16797-91.91992-101.03418v-31.45703
				c0-60.86914,31.05664-101.02344,91.91992-101.02344c60.86426,0,92.33496,40.1543,92.33496,101.02344v31.45703
				C946.52637,294.65625,915.05566,334.82422,854.19141,334.82422z M910.08887,202.33301
				c0-42.24316-16.98047-69.16602-55.89746-69.16602c-38.50488,0-55.48438,26.5127-55.48438,69.16602v31.45703
				c0,42.23926,16.56348,69.15137,55.48438,69.15137c38.50879,0,55.89746-26.49609,55.89746-69.15137V202.33301z"/>
			<path fill="#6D6E71" d="M1072.27832,334.82422h-3.72754c-28.15918,0-85.29883-15.73145-85.29883-97.30566V112.48438
				c0-4.55664,2.90234-8.28613,7.45898-8.28613h21.53027c4.54883,0,7.44824,3.72949,7.44824,8.28613v125.03418
				c0,49.67871,21.12109,65.42285,48.86133,65.42285h3.72754c27.74023,0,48.85352-15.74414,48.85352-65.42285V112.48438
				c0-4.55664,2.89844-8.28613,7.45801-8.28613h21.52832c4.55957,0,7.4541,3.72949,7.4541,8.28613v125.03418
				C1157.57227,319.09277,1100.42676,334.82422,1072.27832,334.82422z"/>
			<g>
				<path fill="#6D6E71" d="M1290.57227,133.16699c-28.1582,0-41.82422,0.8457-57.55273,4.15039v186.3252
					c0,4.13867-2.90137,8.27734-7.45313,8.27734h-21.5332c-4.1377,0-7.45117-3.71973-7.45117-8.27734V122.41602
					c0-4.55664,2.89355-7.45508,7.45117-9.53516c23.60547-10.34375,52.16797-11.57129,86.53906-11.57129
					c5.38086,0,8.69629,0.39746,8.69629,6.20117v19.0459C1299.26855,131.11426,1298.44141,133.16699,1290.57227,133.16699z"/>
				<path fill="#6D6E71" d="M1453.37012,330.27441c-13.66113,2.47559-32.29883,4.5498-51.75391,4.5498
					c-56.3125,0-88.19531-39.75-88.19531-100.62598v-32.28809c0-60.85547,31.4668-100.60059,88.19531-100.60059
					c19.04688,0,38.09277,2.0625,51.75391,4.54297c6.62598,1.24805,8.29102,3.31738,8.29102,9.1084v14.9043
					c0,4.14746-3.31934,6.20703-7.04688,6.20703c-0.82813,0-1.24414,0-1.65137,0
					c-18.22461-2.05957-31.06152-2.90527-51.34668-2.90527c-33.12598,0-51.7627,21.9707-51.7627,68.74316v32.28809
					c0,46.38086,18.21875,68.74316,51.7627,68.74316c20.28516,0,33.12207-0.82227,51.34668-2.90332c0.40723,0,0.82324,0,1.65137,0
					c3.72754,0,7.04688,2.08105,7.04688,6.22168v14.89063C1461.66113,326.54492,1459.99609,329.03027,1453.37012,330.27441z"/>
				<path fill="#6D6E71" d="M1654.26758,229.64844h-138.71484v4.97168c0,47.62109,22.36426,69.57129,60.45508,69.57129
					c24.01172,0,51.75293-2.90527,70.80762-5.81348c0.81836,0,1.23535,0,2.06641,0c3.31055,0,6.62402,1.66016,6.62402,5.81348
					v14.08008c0,5.37109-1.66211,8.27344-8.2832,9.50977c-23.60059,4.54883-43.46582,7.04297-71.21484,7.04297
					c-47.61133,0-96.88379-22.77344-96.88379-102.27832v-28.98242c0-58.7793,32.70996-102.25391,91.91309-102.25391
					c60.45215,0,91.09766,43.05664,91.09766,101.8457v17.39453C1662.13477,225.92383,1659.23438,229.64844,1654.26758,229.64844z
					 M1625.27734,199.84766c0-44.30176-17.7998-66.68066-54.24023-66.68066c-35.60352,0-55.48438,24.02051-55.48438,66.68066v2.0625
					h109.72461V199.84766z"/>
			</g>
		</g>
		<g>
			<path fill="#6D6E71" d="M616.53906,420.27148h-3.04297c-0.6582,0-1.19727-0.54004-1.19727-1.19336v-19.83301h-20.41992v19.83301
				c0,0.65332-0.53809,1.19336-1.19336,1.19336h-3.04492c-0.66113,0-1.19531-0.54004-1.19531-1.19336v-41.97754
				c0-0.66309,0.53418-1.19824,1.19531-1.19824h3.04492c0.65527,0,1.19336,0.53516,1.19336,1.19824v17.30859h20.41992v-17.30859
				c0-0.66309,0.53906-1.19824,1.19727-1.19824h3.04297c0.65918,0,1.19727,0.53516,1.19727,1.19824v41.97754
				C617.73633,419.73145,617.19824,420.27148,616.53906,420.27148z"/>
			<path fill="#6D6E71" d="M651.39844,420.3916c-2.26465,0.23828-8.12012,0.29395-11.64258,0.29395
				c-8.36133,0-12.7207-3.15527-12.7207-11.10645v-22.99219c0-7.93652,4.35938-11.10352,12.7207-11.10352
				c3.52246,0,9.13867,0.12109,11.64258,0.35352c0.36035,0.06543,0.60059,0.47852,0.60059,0.83887v2.98828
				c0,0.41406-0.24023,0.71484-0.66016,0.71484h-11.52539c-6.3291,0-7.34277,1.6709-7.34277,6.20801v8.29785h18.33301
				c0.65625,0,1.19531,0.54492,1.19531,1.19922v2.27539c0,0.64648-0.53906,1.19043-1.19531,1.19043H632.4707v10.0293
				c0,4.54395,1.01367,6.21289,7.34277,6.21289h11.52539c0.41992,0,0.66016,0.29883,0.66016,0.7168v3.0459
				C651.99902,419.90625,651.75879,420.3291,651.39844,420.3916z"/>
			<path fill="#6D6E71" d="M684.29297,420.14844c-1.55664,0.24316-6.03027,0.53711-11.64551,0.53711
				c-6.39063,0-12.72168-1.25293-12.72168-11.10645v-32.47852c0-0.66309,0.53906-1.19824,1.19727-1.19824h3.04297
				c0.6582,0,1.19434,0.53516,1.19434,1.19824v32.47852c0,4.54395,1.0166,6.21289,7.3457,6.21289h11.52441
				c0.41895,0,0.66016,0.29883,0.66016,0.7168v2.81152C684.89063,419.67383,684.64941,420.08984,684.29297,420.14844z"/>
			<path fill="#6D6E71" d="M701.95215,402.59277c-1.9082,0-4.41602-0.17578-5.96875-0.29297v16.77832
				c0,0.5957-0.41797,1.19336-1.0752,1.19336h-3.22363c-0.5957,0-1.07422-0.54004-1.07422-1.19336v-41.62305
				c0-0.83398,0.53516-1.37402,1.42969-1.49512c2.57227-0.29297,6.45313-0.47656,9.91211-0.47656
				c9.67773,0,16.7207,3.34863,16.7207,12.95703v0.77246C718.67285,399.18945,711.62988,402.59277,701.95215,402.59277z
				 M713.23926,388.44043c0-6.02344-3.58105-8.3623-11.28711-8.3623c-1.84863,0-4.53613,0.12012-5.96875,0.23828v17.50098
				c1.37402,0.06055,4.42285,0.23828,5.96875,0.23828c8.18652,0,11.28711-2.62598,11.28711-8.84277V388.44043z"/>
			<path fill="#6D6E71" d="M730.96582,420.27148h-3.29102c-0.59082,0-1.07031-0.54004-1.07031-1.19336v-42.04102
				c0-0.59961,0.41992-1.13477,1.07031-1.13477h3.29102c0.59766,0,1.0752,0.47656,1.0752,1.13477v42.04102
				C732.04102,419.67383,731.62402,420.27148,730.96582,420.27148z"/>
			<path fill="#6D6E71" d="M771.56543,420.27148h-3.3418c-0.60059,0-1.01855-0.54004-1.01855-1.19336v-26.39941
				c0-10.38477-3.58594-12.48047-10.98633-12.48047c-2.57031,0-7.3457,0.24121-8.83887,0.35645v38.52344
				c0,0.5957-0.41895,1.19336-1.07324,1.19336h-3.28418c-0.65625,0-1.07813-0.54004-1.07813-1.19336v-40.84766
				c0-1.49707,0.47852-1.91504,1.67578-2.08398c3.16309-0.47949,9.66797-0.7207,12.71484-0.7207
				c10.75098,0,16.30469,4.05957,16.30469,17.25293v26.39941C772.63965,419.67383,772.22266,420.27148,771.56543,420.27148z"/>
			<path fill="#6D6E71" d="M807.61816,419.79199c-2.92578,0.47949-6.27051,0.89355-11.88281,0.89355
				c-7.46387,0-15.46582-4.89355-15.46582-18.56934v-7.99512c0-14.51465,8.35938-18.6377,16.00586-18.6377
				c5.55078,0,9.07324,0.47656,11.34277,0.83203c0.53613,0.06348,1.01367,0.30566,1.01367,0.90137v2.98145
				c0,0.42188-0.23828,0.59961-0.77246,0.59961c-0.06055,0-0.18164,0-0.24121,0c-3.52344-0.29785-6.27051-0.41895-11.34277-0.41895
				c-5.55664,0-10.56543,2.99219-10.56543,13.74219v7.99512c0,9.85547,4.47656,13.73242,10.02539,13.73242
				c3.64355,0,6.09082-0.23535,7.52344-0.35547v-17.08105c0-0.65234,0.41992-1.19629,1.07813-1.19629h3.21973
				c0.59766,0,1.13867,0.54395,1.13867,1.19629v20.06641C808.69531,419.13672,808.27637,419.67383,807.61816,419.79199z"/>
			<path fill="#6D6E71" d="M862.6543,377.39063l-12.47461,24.84961v16.83789c0,0.5957-0.42383,1.19336-1.08496,1.19336h-3.39844
				c-0.59766,0-1.01465-0.54004-1.01465-1.19336v-16.83789l-12.4834-24.84961c-0.11719-0.29004-0.18359-0.53516-0.18359-0.71484
				c0-0.4707,0.36816-0.77344,0.9668-0.77344h3.75781c0.41602,0,0.83691,0.41309,1.01758,0.83105l9.66992,20.24805l9.6748-20.24805
				c0.17871-0.41797,0.54004-0.83105,1.0166-0.83105h3.70215c0.59766,0,1.0166,0.30273,1.0166,0.83105
				C862.83691,376.91406,862.77832,377.15625,862.6543,377.39063z"/>
			<path fill="#6D6E71" d="M884.98242,420.68555c-9.38086,0-16.17773-5.49121-16.17773-18.75293v-7.69629
				c0-13.25977,6.79688-18.75293,16.17773-18.75293c9.37305,0,16.12402,5.49316,16.12402,18.75293v7.69629
				C901.10645,415.19434,894.35547,420.68555,884.98242,420.68555z M895.60645,394.23633
				c0-10.0293-4.05762-13.85742-10.62402-13.85742c-6.51465,0-10.6875,3.82813-10.6875,13.85742v7.69629
				c0,10.03906,4.10938,13.85938,10.6875,13.85938c6.50293,0,10.62402-3.82031,10.62402-13.85938V394.23633z"/>
			<path fill="#6D6E71" d="M937.87402,420.0332c-3.16406,0.47266-9.67773,0.71289-12.72168,0.71289
				c-10.74414,0-16.30176-4.05566-16.30176-17.25977v-26.38574c0-0.60352,0.41406-1.19824,1.07422-1.19824h3.33984
				c0.60547,0,1.02246,0.53516,1.02246,1.19824v26.38574c0,10.39746,3.58398,12.48242,10.98242,12.48242
				c2.56934,0,7.35156-0.23633,8.83984-0.35547v-38.5127c0-0.60352,0.41797-1.19824,1.07715-1.19824h3.28223
				c0.66113,0,1.07422,0.53516,1.07422,1.19824v41.01855C939.54297,419.6123,939.06738,419.84961,937.87402,420.0332z"/>
			<path fill="#6D6E71" d="M976.8457,420.68555c-3.94434,0-7.46387-0.17969-9.73242-0.53711
				c-1.37012-0.17969-1.97363-0.71582-1.97363-2.20996v-39.76563c0-1.37695,0.66113-2.0918,1.90723-2.21289
				c1.97363-0.24219,5.61523-0.47656,9.50098-0.47656c9.49512,0,17.49707,2.50586,17.49707,11.52832v0.9541
				c0,4.41602-2.33008,7.82031-6.38477,9.37207c4.11523,1.43555,6.62109,5.0791,6.62109,9.67383v1.01563
				C994.28125,418.05859,986.16309,420.68555,976.8457,420.68555z M988.6084,387.01172c0-5.73242-4.77344-6.93359-12.06055-6.93359
				c-2.03125,0-4.24219,0.12012-5.91211,0.18164v14.8125h9.19727c6.9248,0,8.77539-3.34473,8.77539-7.10645V387.01172z
				 M988.84375,407.01172c0-3.93945-1.96582-7.58301-9.01074-7.58301h-9.19727v16.41992
				c1.96973,0.0625,4.12207,0.24219,6.20996,0.24219c7.40234,0,11.99805-1.61523,11.99805-8.06348V407.01172z"/>
			<path fill="#6D6E71" d="M1030.4541,420.0332c-3.16309,0.47266-9.66895,0.71289-12.71387,0.71289
				c-10.75195,0-16.30078-4.05566-16.30078-17.25977v-26.38574c0-0.60352,0.41016-1.19824,1.07227-1.19824h3.33887
				c0.60059,0,1.02246,0.53516,1.02246,1.19824v26.38574c0,10.39746,3.58105,12.48242,10.98242,12.48242
				c2.57227,0,7.34863-0.23633,8.8457-0.35547v-38.5127c0-0.60352,0.41309-1.19824,1.06836-1.19824h3.28809
				c0.65137,0,1.07227,0.53516,1.07227,1.19824v41.01855C1032.12988,419.6123,1031.65039,419.84961,1030.4541,420.0332z"/>
			<path fill="#6D6E71" d="M1046.38867,420.27148h-3.28906c-0.59375,0-1.07031-0.54004-1.07031-1.19336v-42.04102
				c0-0.59961,0.41309-1.13477,1.07031-1.13477h3.28906c0.59766,0,1.0752,0.47656,1.0752,1.13477v42.04102
				C1047.46387,419.67383,1047.0498,420.27148,1046.38867,420.27148z"/>
			<path fill="#6D6E71" d="M1081.73047,420.14844c-1.54688,0.24316-6.02832,0.53711-11.6377,0.53711
				c-6.39355,0-12.72461-1.25293-12.72461-11.10645v-32.47852c0-0.66309,0.53223-1.19824,1.19336-1.19824h3.04297
				c0.6582,0,1.19824,0.53516,1.19824,1.19824v32.47852c0,4.54395,1.01367,6.21289,7.3418,6.21289h11.52734
				c0.41602,0,0.65625,0.29883,0.65625,0.7168v2.81152C1082.32813,419.67383,1082.08789,420.08984,1081.73047,420.14844z"/>
			<path fill="#6D6E71" d="M1100.17285,420.68555c-4.54004,0-9.13965-0.29395-10.86133-0.5957
				c-0.78125-0.12109-1.26563-0.59375-1.26563-1.48828v-41.0293c0-0.83887,0.48438-1.36719,1.26563-1.49121
				c1.72168-0.30176,6.32129-0.59766,10.86133-0.59766c11.05078,0,18.0918,5.67285,18.0918,18.56934v8.06348
				C1118.26465,414.8916,1111.22363,420.68555,1100.17285,420.68555z M1112.83008,394.05273
				c0-10.80566-5.48828-13.90625-12.65723-13.90625c-2.80859,0-4.66016,0.05176-6.63379,0.16992v35.59473
				c1.91992,0.11914,3.8252,0.11914,6.63379,0.11914c7.16895,0,12.65723-3.16406,12.65723-13.91406V394.05273z"/>
			<path fill="#6D6E71" d="M1154.31738,420.68555c-3.93945,0-7.46191-0.17969-9.74023-0.53711
				c-1.36426-0.17969-1.96582-0.71582-1.96582-2.20996v-39.76563c0-1.37695,0.65527-2.0918,1.91504-2.21289
				c1.96582-0.24219,5.61035-0.47656,9.49121-0.47656c9.49219,0,17.49512,2.50586,17.49512,11.52832v0.9541
				c0,4.41602-2.3252,7.82031-6.3877,9.37207c4.11914,1.43555,6.62891,5.0791,6.62891,9.67383v1.01563
				C1171.75391,418.05859,1163.63281,420.68555,1154.31738,420.68555z M1166.08105,387.01172
				c0-5.73242-4.7793-6.93359-12.06348-6.93359c-2.03125,0-4.2373,0.12012-5.91016,0.18164v14.8125h9.19531
				c6.92578,0,8.77832-3.34473,8.77832-7.10645V387.01172z M1166.32031,407.01172c0-3.93945-1.97168-7.58301-9.01758-7.58301
				h-9.19531v16.41992c1.96777,0.0625,4.12305,0.24219,6.20996,0.24219c7.39844,0,12.00293-1.61523,12.00293-8.06348V407.01172z"/>
			<path fill="#6D6E71" d="M1203.74609,420.3916c-2.27051,0.23828-8.12109,0.29395-11.64063,0.29395
				c-8.36523,0-12.72168-3.15527-12.72168-11.10645v-22.99219c0-7.93652,4.35645-11.10352,12.72168-11.10352
				c3.51953,0,9.13477,0.12109,11.64063,0.35352c0.3623,0.06543,0.59766,0.47852,0.59766,0.83887v2.98828
				c0,0.41406-0.23535,0.71484-0.65137,0.71484h-11.5332c-6.32715,0-7.34082,1.6709-7.34082,6.20801v8.29785h18.33301
				c0.66113,0,1.19238,0.54492,1.19238,1.19922v2.27539c0,0.64648-0.53125,1.19043-1.19238,1.19043h-18.33301v10.0293
				c0,4.54395,1.01367,6.21289,7.34082,6.21289h11.5332c0.41602,0,0.65137,0.29883,0.65137,0.7168v3.0459
				C1204.34375,419.90625,1204.1084,420.3291,1203.74609,420.3916z"/>
			<path fill="#6D6E71" d="M1239.62402,380.55469h-11.64453v38.52344c0,0.5957-0.41992,1.19336-1.07129,1.19336h-3.29102
				c-0.59668,0-1.07422-0.54004-1.07422-1.19336v-38.52344h-11.63867c-0.66211,0-1.19824-0.29492-1.19824-0.94824v-2.63477
				c0-0.59277,0.53613-1.06934,1.19824-1.06934h28.71973c0.65527,0,1.13184,0.41309,1.13184,1.06934v2.63477
				C1240.75586,380.19824,1240.2793,380.55469,1239.62402,380.55469z"/>
			<path fill="#6D6E71" d="M1274.8457,380.55469h-11.64746v38.52344c0,0.5957-0.41602,1.19336-1.07324,1.19336h-3.28711
				c-0.59277,0-1.07227-0.54004-1.07227-1.19336v-38.52344h-11.64746c-0.65332,0-1.19238-0.29492-1.19238-0.94824v-2.63477
				c0-0.59277,0.53906-1.06934,1.19238-1.06934h28.72754c0.65918,0,1.13281,0.41309,1.13281,1.06934v2.63477
				C1275.97852,380.19824,1275.50488,380.55469,1274.8457,380.55469z"/>
			<path fill="#6D6E71" d="M1307.07617,420.3916c-2.2666,0.23828-8.12305,0.29395-11.64063,0.29395
				c-8.36133,0-12.72559-3.15527-12.72559-11.10645v-22.99219c0-7.93652,4.36426-11.10352,12.72559-11.10352
				c3.51758,0,9.13672,0.12109,11.64063,0.35352c0.3623,0.06543,0.59473,0.47852,0.59473,0.83887v2.98828
				c0,0.41406-0.23242,0.71484-0.66113,0.71484h-11.52051c-6.3291,0-7.34082,1.6709-7.34082,6.20801v8.29785h18.33691
				c0.6543,0,1.18555,0.54492,1.18555,1.19922v2.27539c0,0.64648-0.53125,1.19043-1.18555,1.19043h-18.33691v10.0293
				c0,4.54395,1.01172,6.21289,7.34082,6.21289h11.52051c0.42871,0,0.66113,0.29883,0.66113,0.7168v3.0459
				C1307.6709,419.90625,1307.43848,420.3291,1307.07617,420.3916z"/>
			<path fill="#6D6E71" d="M1345.28027,420.27148h-4.17383c-0.72363,0-0.83398,0-1.31738-0.77539l-10.6875-17.7959
				c-0.17969,0-0.35938,0-0.53613,0c-0.3623,0-0.65527,0-1.01172,0c-1.98535,0-5.08008-0.12207-6.57715-0.18164v17.55957
				c0,0.5957-0.41699,1.19336-1.06738,1.19336h-3.22949c-0.59766,0-1.07813-0.54004-1.07813-1.19336v-41.80273
				c0-0.83789,0.36621-1.19434,1.4375-1.31543c2.56738-0.29297,7.0459-0.47656,10.51465-0.47656
				c9.43555,0,16.71484,3.16699,16.71484,12.83887v0.41602c0,6.69141-3.93945,10.63086-9.37207,12.06055l10.98535,18.33789
				c0.12012,0.18359,0.18164,0.35938,0.18164,0.53711C1346.06348,420.0332,1345.81836,420.27148,1345.28027,420.27148z
				 M1338.89355,388.32227c0-5.97266-3.87988-7.94336-11.33984-7.94336c-1.85645,0-5.1416,0-6.57715,0.17578v16.36523
				c1.26367,0,5.19824,0.125,6.57715,0.125c7.34277,0,11.33984-1.85449,11.33984-8.30664V388.32227z"/>
			<path fill="#6D6E71" d="M1380.55566,402.59277c-1.91504,0-4.41406-0.17578-5.97266-0.29297v16.77832
				c0,0.5957-0.41602,1.19336-1.07031,1.19336h-3.22461c-0.60059,0-1.08008-0.54004-1.08008-1.19336v-41.62305
				c0-0.83398,0.54004-1.37402,1.43555-1.49512c2.56348-0.29297,6.45215-0.47656,9.91211-0.47656
				c9.67188,0,16.72168,3.34863,16.72168,12.95703v0.77246C1397.27734,399.18945,1390.22754,402.59277,1380.55566,402.59277z
				 M1391.84473,388.44043c0-6.02344-3.58496-8.3623-11.28906-8.3623c-1.85156,0-4.53711,0.12012-5.97266,0.23828v17.50098
				c1.36816,0.06055,4.4209,0.23828,5.97266,0.23828c8.19043,0,11.28906-2.62598,11.28906-8.84277V388.44043z"/>
			<path fill="#6D6E71" d="M1434.2832,420.27148h-4.18066c-0.70996,0-0.83008,0-1.30762-0.77539l-10.69531-17.7959
				c-0.18164,0-0.35547,0-0.5293,0c-0.3623,0-0.66113,0-1.01953,0c-1.96875,0-5.07715-0.12207-6.56641-0.18164v17.55957
				c0,0.5957-0.41699,1.19336-1.08008,1.19336h-3.21875c-0.59863,0-1.07813-0.54004-1.07813-1.19336v-41.80273
				c0-0.83789,0.3584-1.19434,1.43164-1.31543c2.56836-0.29297,7.0498-0.47656,10.51172-0.47656
				c9.43066,0,16.71582,3.16699,16.71582,12.83887v0.41602c0,6.69141-3.93652,10.63086-9.37207,12.06055l10.9873,18.33789
				c0.11719,0.18359,0.17871,0.35938,0.17871,0.53711C1435.06055,420.0332,1434.82324,420.27148,1434.2832,420.27148z
				 M1427.89551,388.32227c0-5.97266-3.87891-7.94336-11.34473-7.94336c-1.85059,0-5.13867,0-6.56641,0.17578v16.36523
				c1.24707,0,5.19238,0.125,6.56641,0.125c7.34375,0,11.34473-1.85449,11.34473-8.30664V388.32227z"/>
			<path fill="#6D6E71" d="M1457.02539,420.68555c-9.37695,0-16.18359-5.49121-16.18359-18.75293v-7.69629
				c0-13.25977,6.80664-18.75293,16.18359-18.75293c9.37988,0,16.12207,5.49316,16.12207,18.75293v7.69629
				C1473.14746,415.19434,1466.40527,420.68555,1457.02539,420.68555z M1467.6543,394.23633
				c0-10.0293-4.06348-13.85742-10.62891-13.85742c-6.51172,0-10.69238,3.82813-10.69238,13.85742v7.69629
				c0,10.03906,4.12109,13.85938,10.69238,13.85938c6.50977,0,10.62891-3.82031,10.62891-13.85938V394.23633z"/>
			<path fill="#6D6E71" d="M1493.49707,420.68555c-4.53906,0-9.1377-0.29395-10.87012-0.5957
				c-0.76953-0.12109-1.25195-0.59375-1.25195-1.48828v-41.0293c0-0.83887,0.48242-1.36719,1.25195-1.49121
				c1.73242-0.30176,6.33105-0.59766,10.87012-0.59766c11.04492,0,18.09668,5.67285,18.09668,18.56934v8.06348
				C1511.59375,414.8916,1504.54199,420.68555,1493.49707,420.68555z M1506.15625,394.05273
				c0-10.80566-5.49805-13.90625-12.65918-13.90625c-2.80566,0-4.66016,0.05176-6.62305,0.16992v35.59473
				c1.9043,0.11914,3.81738,0.11914,6.62305,0.11914c7.16113,0,12.65918-3.16406,12.65918-13.91406V394.05273z"/>
			<path fill="#6D6E71" d="M1548.18457,420.0332c-3.16309,0.47266-9.68066,0.71289-12.71973,0.71289
				c-10.75195,0-16.30566-4.05566-16.30566-17.25977v-26.38574c0-0.60352,0.41406-1.19824,1.08105-1.19824h3.33887
				c0.59863,0,1.01758,0.53516,1.01758,1.19824v26.38574c0,10.39746,3.58008,12.48242,10.98535,12.48242
				c2.56934,0,7.33984-0.23633,8.83984-0.35547v-38.5127c0-0.60352,0.41602-1.19824,1.0752-1.19824h3.28418
				c0.66016,0,1.07422,0.53516,1.07422,1.19824v41.01855C1549.85547,419.6123,1549.37988,419.84961,1548.18457,420.0332z"/>
			<path fill="#6D6E71" d="M1583.76172,419.90625c-2.51465,0.48535-4.83398,0.7793-9.91699,0.7793
				c-7.34766,0-15.76367-3.93945-15.76367-18.44531v-8.30859c0-14.62305,8.41602-18.44824,15.76367-18.44824
				c3.7627,0,7.40234,0.53711,10.03516,0.9541c0.53613,0.05957,0.9541,0.23828,0.9541,0.7793v3.04297
				c0,0.36035-0.12012,0.65625-0.71387,0.65625c-0.0625,0-0.12305,0-0.18359,0c-2.14844-0.17383-6.56836-0.53711-10.02832-0.53711
				c-5.85059,0-10.39063,3.4043-10.39063,13.55273v8.30859c0,10.02539,4.54004,13.55176,10.39063,13.55176
				c3.40234,0,7.70703-0.29883,9.85352-0.48047c0.06055,0,0.1748,0,0.23535,0c0.65332,0,0.9541,0.30176,0.9541,0.9541v2.4541
				C1584.95117,419.43262,1584.41602,419.79199,1583.76172,419.90625z"/>
			<path fill="#6D6E71" d="M1619.04102,380.55469h-11.64063v38.52344c0,0.5957-0.42871,1.19336-1.08008,1.19336h-3.28516
				c-0.59375,0-1.07227-0.54004-1.07227-1.19336v-38.52344h-11.64258c-0.66699,0-1.20508-0.29492-1.20508-0.94824v-2.63477
				c0-0.59277,0.53809-1.06934,1.20508-1.06934h28.7207c0.65234,0,1.13281,0.41309,1.13281,1.06934v2.63477
				C1620.17383,380.19824,1619.69336,380.55469,1619.04102,380.55469z"/>
			<path fill="#6D6E71" d="M1637.35352,420.68555c-4.17383,0-7.28418-0.41406-9.91211-0.83594
				c-1.01172-0.17578-1.13184-0.41699-1.13184-1.07813v-2.38281c0-0.65625,0.48438-0.95898,1.01953-0.95898
				c0.05176,0,0.1123,0,0.18066,0c2.74121,0.24707,7.10156,0.3623,9.84375,0.3623c7.16895,0,9.08594-2.86621,9.08594-7.04688
				c0-2.98828-1.73047-4.65723-7.16797-8.00391l-5.79102-3.52539c-5.49121-3.33789-8.24414-6.3877-8.24414-11.16309
				c0-7.2207,5.19922-10.56934,14.27051-10.56934c3.5293,0,8.12402,0.35352,10.3877,0.72168
				c0.60449,0.11035,1.01855,0.41602,1.01855,1.01172v2.56543c0,0.59668-0.41406,0.95996-1.01855,0.95996
				c-0.05566,0-0.05566,0-0.11328,0c-2.62891-0.1875-6.80566-0.36328-10.27441-0.36328c-6.14355,0-8.77539,1.31641-8.77539,5.67383
				c0,2.80762,1.97168,4.47949,6.50586,7.22754l5.49121,3.28711c6.93359,4.11426,9.38379,7.39844,9.38379,12.17773
				C1652.1123,414.47559,1649.12207,420.68555,1637.35352,420.68555z"/>
		</g>
	</g>
	<g>
		<g>
			<g>
				<path fill="#00BBD6" d="M403.09961,350.87598"/>
				<path fill="#00BBD6" d="M316.75684,350.87598"/>
				<g>
					<path fill="#00BBD6" d="M320.06738,384.17871V135.49023c0-4.28125,3.88867-7.3877,8.1582-7.3877h62.94434
						c4.28418,0,7.77832,3.10645,7.77832,7.3877v216.03418c12.04785,1.56445,26.42383,2.3584,37.30859,2.3584
						c27.58496,0,39.24023-11.66797,39.24023-46.65723V135.49023c0-4.28125,3.49121-7.3877,7.75977-7.3877h63.3457
						c4.26758,0,7.76172,3.10645,7.76172,7.3877v171.73535c0,94.43945-50.89941,113.07813-125.89063,113.07813
						c-17.09863,0-65.6748-3.48926-83.15723-6.19336C326.66797,411.38379,320.06738,405.92969,320.06738,384.17871z"/>
				</g>
				<g>
					<path fill="#00BBD6" d="M554.36426,43.99414v145.77441l-71.09375,110.27246c-4.28223,0-7.77344-3.08887-7.77344-7.37402
						V76.61816c-12.0459-1.54883-26.40918-2.31836-37.30273-2.31836c-27.5957,0-39.24609,11.64355-39.24609,46.63184v171.73535
						c0,4.28516-3.49414,7.37402-7.77832,7.37402h-63.31738c-4.27637,0-7.78516-3.08887-7.78516-7.37402V120.93164
						c0-94.4375,50.91309-113.07324,125.89453-113.07324c17.10254,0,65.66504,3.4834,83.14844,6.19238
						C547.76563,16.79004,554.36426,22.21826,554.36426,43.99414z"/>
				</g>
				<g>
					<path fill="#00BBD6" d="M371.83594,414.11035c-17.4834,2.7041-66.05273,6.19336-83.14551,6.19336
						c-74.99023,0-125.8999-18.63867-125.8999-113.07813V135.49023c0-4.28125,3.50293-7.3877,7.77588-7.3877h63.34131
						c4.25879,0,7.76416,3.10645,7.76416,7.3877v171.73535c0,34.98926,11.64648,46.65723,39.2334,46.65723
						c10.88281,0,25.2627-0.79395,37.31543-2.3584V135.49023c0-4.28125,3.49609-7.3877,7.76465-7.3877h62.94922
						c4.27539,0,8.15723,3.10645,8.15723,7.3877v248.68848C397.0918,405.92969,390.49805,411.38379,371.83594,414.11035z"/>
				</g>
				<g>
					<path fill="#00BBD6" d="M188.04443,14.05078c17.48047-2.70898,66.05908-6.19238,83.14014-6.19238
						c74.99316,0,125.90527,18.63574,125.90527,113.07324v171.73535c0,4.28516-3.50293,7.37402-7.77051,7.37402h-63.33398
						c-4.2793,0-7.76465-3.08887-7.76465-7.37402V120.93164c0-34.98828-11.65625-46.63184-39.25195-46.63184
						c-10.88477,0-25.26172,0.76953-37.29688,2.31836v216.04883c0,4.28516-3.50537,7.37402-7.76416,7.37402h-62.95605
						c-4.28125,0-8.16113-3.08887-8.16113-7.37402V43.99414C162.79053,22.21826,169.38525,16.79004,188.04443,14.05078z"/>
				</g>
				<rect x="287.40918" y="400.1416" fill="#00BBD6" width="142.0957" height="20.14941"/>
			</g>
			<rect x="274.34473" y="333.98828" fill="#FFFFFF" width="161.79492" height="19.46484"/>
		</g>
		<g>
			<g>
				<path fill="#00BBD6" d="M284.37695,95.20215v-1.45898c0-0.44824,0.25-0.47754,0.66602-0.47754
					c2.64746,0,4.85449,0.09277,6.66797,0.8916c0.35645,0.16016,0.58008,0.38379,0.57715,0.73145v15.51563
					c0,0.35059-0.25293,0.6377-0.57422,0.6377h-1.6582c-0.35059,0-0.5752-0.32129-0.5752-0.64355v-14.3623
					c-1.21191-0.25098-2.26758-0.31543-4.43359-0.31543C284.44043,95.7207,284.37695,95.56152,284.37695,95.20215z"/>
				<path fill="#00BBD6" d="M267.35938,103.47754v-2.43066c0-4.69531,2.42871-7.78125,7.11816-7.78125
					s7.08398,3.09277,7.08398,7.78125v2.43066c0,4.69141-2.39453,7.7832-7.08398,7.7832S267.35938,108.16895,267.35938,103.47754z
					 M270.17285,103.47754c0,3.28809,1.33887,5.3291,4.30469,5.3291c3.00195,0,4.2793-2.08105,4.2793-5.3291v-2.43066
					c0-3.28711-1.30859-5.32617-4.2793-5.32617c-2.99414,0-4.30469,2.07422-4.30469,5.32617V103.47754z"/>
				<path fill="#00BBD6" d="M249.96875,103.47754v-2.43262c0-4.69336,2.4248-7.7793,7.11816-7.7793
					c4.68945,0,7.08008,3.09277,7.08008,7.78125v2.43066c0,4.69141-2.39063,7.7832-7.08008,7.7832
					C252.39355,111.26074,249.96875,108.16895,249.96875,103.47754z M252.77344,103.47754c0,3.28809,1.34473,5.3291,4.31348,5.3291
					c2.99414,0,4.27246-2.08105,4.2666-5.3291v-2.43066c0.00586-3.28711-1.30176-5.32617-4.2666-5.32617
					c-3.00098,0-4.31348,2.07422-4.31348,5.32617V103.47754z"/>
				<path fill="#00BBD6" d="M232.5708,103.47754v-2.43066c0-4.69531,2.41992-7.78125,7.11523-7.78125
					c4.69287,0,7.08691,3.09277,7.08691,7.78125v2.43066c0,4.69141-2.39404,7.7832-7.08691,7.7832
					C234.99414,111.26074,232.5708,108.16895,232.5708,103.47754z M235.37939,103.47754
					c-0.00342,3.28809,1.33594,5.3291,4.30664,5.3291c3.00049,0,4.27588-2.08105,4.27588-5.3291v-2.43066
					c0-3.28125-1.30713-5.32617-4.27588-5.32617c-2.99951,0-4.30664,2.07422-4.30664,5.32617V103.47754z"/>
				<path fill="#00BBD6" d="M220.88184,95.21387v-1.4707c0-0.44824,0.25488-0.47754,0.68018-0.47754
					c2.6416,0,4.84521,0.09277,6.66455,0.8916c0.35352,0.16016,0.57422,0.38379,0.57422,0.73145v15.50977
					c0,0.35645-0.25537,0.64355-0.57422,0.64355h-1.66357c-0.3457,0-0.57227-0.32129-0.57227-0.6377V96.03613
					c-1.20654-0.25098-2.26172-0.31543-4.42871-0.31543C220.94775,95.7207,220.88184,95.56152,220.88184,95.21387z"/>
				<path fill="#00BBD6" d="M209.58496,95.20215v-1.46777c0-0.43945,0.25635-0.46875,0.67236-0.46875
					c2.6499,0,4.84473,0.09277,6.67285,0.8916c0.35107,0.16016,0.57422,0.38379,0.57422,0.73145v15.51563
					c0,0.35059-0.26367,0.6377-0.57422,0.6377h-1.66162c-0.3501,0-0.57422-0.32129-0.57422-0.6377V96.03613
					c-1.21582-0.25098-2.27051-0.31543-4.43701-0.31543C209.65381,95.7207,209.58496,95.56152,209.58496,95.20215z"/>
				<path fill="#00BBD6" d="M198.28564,95.21387v-1.47949c0-0.43945,0.25928-0.46875,0.6665-0.46875
					c2.65527,0,4.85693,0.09277,6.67627,0.8916c0.35303,0.16016,0.57178,0.38379,0.57178,0.73145v15.51563
					c0,0.35059-0.25342,0.6377-0.57178,0.6377h-1.65869c-0.35303,0-0.57666-0.32129-0.57666-0.64355v-14.3623
					c-1.21045-0.25098-2.26465-0.31543-4.44092-0.31543C198.34863,95.7207,198.28564,95.56152,198.28564,95.21387z"/>
				<path fill="#00BBD6" d="M181.27393,103.47754v-2.43066c0-4.68848,2.42871-7.78125,7.11816-7.78125
					c4.69238,0,7.08252,3.09277,7.08252,7.78125v2.43066c0,4.69141-2.39014,7.7832-7.08252,7.7832
					C183.70264,111.26074,181.27393,108.16895,181.27393,103.47754z M184.08447,103.47754c0,3.28809,1.34131,5.3291,4.30762,5.3291
					c2.99707,0,4.27832-2.08105,4.27832-5.3291v-2.43066c0-3.28711-1.30713-5.32617-4.27832-5.32617
					c-2.99756,0-4.30762,2.07422-4.30762,5.32617V103.47754z"/>
			</g>
			<g>
				<path fill="#00BBD6" d="M280.41406,119.65723v-2.2002c0-0.66797,0.3877-0.71973,1.01172-0.71973
					c3.96875,0,7.27344,0.14355,10,1.33496c0.52344,0.24609,0.86816,0.58594,0.8623,1.09668v23.27539
					c0.00586,0.5332-0.37891,0.96094-0.8623,0.96094h-2.49121c-0.52344,0-0.85938-0.48047-0.85938-0.96094v-21.53418
					c-1.82129-0.39648-3.39063-0.4834-6.64941-0.48926C280.51465,120.42676,280.41406,120.18652,280.41406,119.65723z"/>
				<path fill="#00BBD6" d="M254.90527,132.05469v-3.63867c0.00293-7.02539,3.62891-11.67871,10.6748-11.67871
					c7.03516,0,10.62109,4.64355,10.62402,11.67871v3.63867c0,7.03906-3.58887,11.68945-10.62402,11.68945
					C258.53418,143.74414,254.90527,139.09375,254.90527,132.05469z M259.10352,132.05469c0,4.9248,2.02051,8.00781,6.47656,8.00781
					c4.5,0,6.41211-3.12109,6.41211-8.00781v-3.63867c0-4.92188-1.96875-7.99512-6.41211-7.99512
					c-4.50488,0-6.4707,3.10742-6.47656,7.99512V132.05469z"/>
				<path fill="#00BBD6" d="M237.37891,119.65723v-2.2002c0-0.66797,0.38232-0.71973,1-0.71973
					c3.97705,0,7.27881,0.14355,10.00879,1.33496c0.52002,0.24609,0.85938,0.58594,0.85938,1.09668v23.27539
					c0,0.5332-0.38232,0.96094-0.85938,0.96094h-2.49121c-0.53174,0-0.86182-0.48047-0.86182-0.96094v-21.53418
					c-1.81689-0.39648-3.39648-0.48926-6.65576-0.48926C237.4707,120.4209,237.37891,120.18652,237.37891,119.65723z"/>
				<path fill="#00BBD6" d="M211.85498,132.05469l0.00635-3.63867c0-7.03516,3.63184-11.67871,10.67188-11.67871
					c7.04102,0,10.62988,4.65332,10.62988,11.67871v3.63867c0,7.03906-3.58887,11.68945-10.62988,11.68945
					C215.49316,143.74414,211.86133,139.09375,211.85498,132.05469z M216.07129,132.05469
					c-0.00391,4.9248,2.01123,8,6.46191,7.99414c4.5,0.01367,6.41455-3.10742,6.41455-7.99414v-3.63867
					c0-4.92188-1.95703-7.98926-6.41455-7.99512c-4.50537,0.00586-6.45996,3.10742-6.46582,7.99512L216.07129,132.05469z"/>
				<path fill="#00BBD6" d="M194.33203,119.65723v-2.2002c0-0.66797,0.38477-0.71973,1.00537-0.71973
					c3.96533,0,7.27588,0.14355,10.00098,1.33496c0.53418,0.24609,0.86426,0.58594,0.86426,1.11035v23.26172
					c0,0.5332-0.37939,0.96094-0.86426,0.96094h-2.48877c-0.52393,0-0.85693-0.48047-0.85986-0.96094v-21.53418
					c-1.82178-0.39648-3.40234-0.48926-6.65234-0.4834C194.42676,120.4209,194.33203,120.18652,194.33203,119.65723z"/>
				<path fill="#00BBD6" d="M177.3833,119.65723v-2.2002c0-0.66797,0.37891-0.71973,1.00537-0.71973
					c3.97168,0,7.27588,0.14355,10.00586,1.33496c0.52051,0.24609,0.85938,0.58594,0.85938,1.11035v23.25977
					c0,0.53516-0.37598,0.96289-0.85938,0.96582l-2.49414-0.00293c-0.52588,0-0.85645-0.48047-0.85645-0.96094l-0.00537-21.53418
					c-1.81641-0.39648-3.3999-0.4834-6.6499-0.4834C177.47998,120.42676,177.3833,120.18652,177.3833,119.65723z"/>
				<path fill="#00BBD6" d="M160.43408,119.65723v-2.2002c0-0.66797,0.37646-0.71973,1.00635-0.71973
					c3.9707,0,7.27539,0.14355,10,1.33496c0.52832,0.24609,0.86426,0.58594,0.86426,1.11035v23.25977
					c0,0.53516-0.38184,0.96289-0.86426,0.96289h-2.48877c-0.52246,0-0.85889-0.48047-0.85889-0.96094v-21.53418
					c-1.82471-0.39648-3.39453-0.48926-6.65234-0.4834C160.52637,120.42676,160.43408,120.18652,160.43408,119.65723z"/>
				<path fill="#00BBD6" d="M134.91016,132.05469l0.00635-3.63867c-0.00635-7.03516,3.63232-11.67871,10.66699-11.67871
					c7.0459,0,10.63232,4.64355,10.63574,11.67871l-0.00342,3.63867c0.00342,7.03906-3.58643,11.68945-10.63232,11.68945
					C138.54883,143.74414,134.9165,139.09375,134.91016,132.05469z M139.12939,132.05469c0,4.9248,2.01123,8.00781,6.4541,8
					c4.50537,0,6.41943-3.11328,6.41943-8v-3.63867c0-4.92188-1.9624-7.99512-6.41943-7.98926
					c-4.49707,0-6.4541,3.10156-6.46045,7.98926L139.12939,132.05469z"/>
			</g>
			<g>
				<path fill="#00BBD6" d="M276.45801,152.6582l0.00781-2.9541c-0.00781-0.89551,0.51172-0.94922,1.33301-0.94922
					c5.29883,0,9.70215,0.1875,13.33691,1.79102c0.70996,0.31934,1.14941,0.75879,1.14941,1.45703v31.03027
					c0,0.7041-0.49707,1.27539-1.14941,1.27539h-3.31348c-0.70117,0-1.14941-0.63184-1.14941-1.27539v-28.73145
					c-2.41699-0.51074-4.53711-0.63379-8.87402-0.63379C276.58984,153.66797,276.46582,153.35742,276.45801,152.6582z"/>
				<path fill="#00BBD6" d="M242.43359,169.18164v-4.85059c0-9.37988,4.85889-15.57617,14.23926-15.57617
					c9.37891,0,14.17285,6.19629,14.17285,15.57617v4.85059c0,9.39063-4.79395,15.57324-14.17871,15.57324
					C247.29248,184.75488,242.43359,178.57227,242.43359,169.18164z M248.05127,169.18164
					c0,6.5752,2.68457,10.64453,8.61572,10.64453c6.00586,0,8.55762-4.13281,8.55762-10.64453v-4.85059
					c0-6.58008-2.61816-10.66309-8.55176-10.66309c-5.9917,0-8.62158,4.14551-8.62158,10.66309V169.18164z"/>
				<path fill="#00BBD6" d="M207.63965,169.18164v-4.85059c0-9.37988,4.85645-15.57617,14.23877-15.57617
					c9.38525,0,14.16699,6.19629,14.16699,15.57617v4.85059c0,9.39063-4.78174,15.57324-14.17285,15.57324
					C212.49609,184.75488,207.63965,178.57227,207.63965,169.18164z M213.26025,169.18164
					c0,6.5752,2.67822,10.64453,8.6123,10.64453c6.00586,0,8.55713-4.13281,8.55713-10.64453v-4.85059
					c0-6.58008-2.61719-10.66309-8.55713-10.66309c-5.99463,0-8.6123,4.14551-8.6123,10.66309V169.18164z"/>
				<path fill="#00BBD6" d="M172.854,169.18164v-4.85059c0-9.37988,4.84473-15.57617,14.23047-15.57617
					c9.38477,0,14.16992,6.19629,14.16992,15.57617v4.85059c0,9.39063-4.78516,15.57324-14.16992,15.57324
					C177.69873,184.75488,172.854,178.57227,172.854,169.18164z M178.46924,169.18164c0,6.5752,2.67871,10.64453,8.62109,10.64453
					c5.98877,0,8.54346-4.13281,8.54346-10.64453v-4.85059c0-6.58008-2.6123-10.66309-8.54932-10.66309
					c-6.00049,0-8.61523,4.14551-8.61523,10.66309V169.18164z"/>
				<path fill="#00BBD6" d="M138.06055,169.18164v-4.85059c0-9.37988,4.84424-15.57617,14.23242-15.57617
					c9.38525,0,14.16699,6.19629,14.17041,15.57617v4.85059c0,9.39063-4.78809,15.57324-14.17041,15.57324
					C142.90479,184.75488,138.04883,178.57227,138.06055,169.18164z M143.67871,169.18164
					c0,6.5752,2.67188,10.64453,8.61426,10.6582c5.99463-0.01367,8.54883-4.14648,8.54883-10.6582v-4.85059
					c0-6.58008-2.60547-10.66309-8.54883-10.66309c-5.99658,0-8.61426,4.14551-8.61426,10.66309V169.18164z"/>
				<path fill="#00BBD6" d="M114.69141,152.6582v-2.9541c0-0.89551,0.51172-0.94922,1.33936-0.94922
					c5.29297,0,9.70117,0.1875,13.34521,1.79102c0.69238,0.31934,1.14111,0.75879,1.146,1.45703l-0.00488,31.03027
					c0.00488,0.7041-0.50879,1.27539-1.14111,1.27539h-3.31885c-0.70752,0-1.1582-0.63184-1.15283-1.27539v-28.73145
					c-2.43115-0.51074-4.53174-0.63379-8.87354-0.63379C114.81836,153.66797,114.69141,153.35742,114.69141,152.6582z"/>
				<path fill="#00BBD6" d="M92.08789,152.6582v-2.9541c0-0.89551,0.52002-0.94922,1.34473-0.94922
					c5.29932,0,9.70117,0.1875,13.33887,1.79102c0.70459,0.31934,1.14453,0.75879,1.14453,1.45703v31.03027
					c0,0.7041-0.50586,1.27539-1.14453,1.27539h-3.31543c-0.7041,0-1.15283-0.63184-1.15283-1.27539l0.00244-28.73145
					c-2.43018-0.51074-4.53418-0.63379-8.87305-0.63379C92.22559,153.66797,92.08789,153.35742,92.08789,152.6582z"/>
				<path fill="#00BBD6" d="M58.06348,169.18164l0.01172-4.85059c-0.01172-9.37988,4.83936-15.57617,14.22461-15.57617
					c9.37988,0,14.16699,6.19629,14.16699,15.57617v4.85059c0,9.39063-4.78711,15.57324-14.16699,15.57324
					C62.91455,184.75488,58.06348,178.57227,58.06348,169.18164z M63.68457,169.18164c0,6.56934,2.68115,10.64453,8.61523,10.64453
					c5.99707,0,8.55469-4.13281,8.55469-10.64453v-4.85059c0-6.58008-2.61475-10.66309-8.55469-10.66309
					c-6,0-8.61523,4.14551-8.61523,10.66309V169.18164z"/>
			</g>
			<g>
				<path fill="#00BBD6" d="M256.77637,215.32324v-6.05957c0.01172-11.73633,6.07129-19.47266,17.79883-19.47266
					c11.7334,0,17.71289,7.73633,17.71289,19.47266l-0.00293,6.05957c0,11.72852-5.9707,19.47461-17.70996,19.47461
					C262.84766,234.79785,256.77637,227.05176,256.77637,215.32324z M263.80469,215.32324
					c0,8.21094,3.34473,13.32813,10.77051,13.32813c7.50586,0,10.69043-5.19043,10.69043-13.32813v-6.05957
					c0-8.22461-3.26758-13.32324-10.6875-13.32324c-7.50293,0-10.77344,5.19238-10.77344,13.32324V215.32324z"/>
				<path fill="#00BBD6" d="M213.29199,215.32129l0.00586-6.05762c0-11.73633,6.05762-19.47266,17.79053-19.47266
					c11.72168,0,17.71094,7.73633,17.71094,19.47266v6.05957c0,11.72852-5.98926,19.47461-17.71094,19.47461
					C219.35547,234.79785,213.29785,227.05176,213.29199,215.32129z M220.30908,215.32324
					c0,8.21094,3.36182,13.32813,10.7793,13.32813c7.49756,0,10.68701-5.19043,10.68701-13.32813v-6.05957
					c0-8.22461-3.26465-13.32324-10.68701-13.32324c-7.50586,0-10.7793,5.19238-10.7793,13.32324V215.32324z"/>
				<path fill="#00BBD6" d="M184.08105,194.65918v-3.67188c0-1.1123,0.6499-1.19629,1.67578-1.19629
					c6.62988,0,12.13818,0.23926,16.68115,2.23535c0.87061,0.40039,1.42822,0.9541,1.42822,1.83984v38.78223
					c0,0.87305-0.62939,1.58984-1.42822,1.58984h-4.14941c-0.88428,0-1.43945-0.7959-1.43945-1.58984v-35.92578
					c-3.03467-0.63281-5.66113-0.78223-11.09229-0.78223C184.23633,195.94043,184.08105,195.53906,184.08105,194.65918z"/>
				<path fill="#00BBD6" d="M155.82764,194.65918v-3.67188c0-1.1123,0.64355-1.19629,1.67822-1.19629
					c6.62988,0,12.12988,0.22461,16.68408,2.23535c0.87451,0.40039,1.43701,0.9541,1.43701,1.83984v38.78223
					c0,0.87305-0.62939,1.58984-1.43701,1.58984h-4.16064c-0.86475,0-1.42871-0.7959-1.42871-1.58984v-35.92578
					c-3.04004-0.63281-5.66943-0.78223-11.09473-0.78223C155.99414,195.94043,155.82764,195.53906,155.82764,194.65918z"/>
				<path fill="#00BBD6" d="M113.30127,215.32324v-6.05957c0.00537-11.73633,6.06885-19.47266,17.79346-19.47266
					c11.73584,0,17.71875,7.73633,17.71875,19.47266v6.05957c0,11.72852-5.98291,19.47461-17.71875,19.47461
					C119.37012,234.79785,113.30127,227.05176,113.30127,215.32324z M120.32715,215.32324
					c0,8.21094,3.3418,13.32813,10.76758,13.32813c7.50537,0,10.69482-5.19043,10.68994-13.32813v-6.05957
					c0-8.22461-3.26465-13.32324-10.68994-13.32324c-7.50635,0-10.76758,5.19238-10.76758,13.32324V215.32324z"/>
				<path fill="#00BBD6" d="M84.09912,194.65918v-3.67188c0-1.1123,0.63232-1.19629,1.67188-1.19629
					c6.61816,0,12.13281,0.23926,16.67871,2.23535c0.87402,0.40039,1.43408,0.9541,1.43408,1.83984v38.78223
					c0,0.87305-0.63477,1.58984-1.43408,1.58984h-4.15479c-0.86816,0-1.43457-0.7959-1.43457-1.58984l0.00293-35.92578
					c-3.03955-0.63281-5.66602-0.78223-11.09229-0.78223C84.25439,195.94043,84.09912,195.53906,84.09912,194.65918z"/>
				<path fill="#00BBD6" d="M13.56055,215.32324v-6.05957c0-11.73633,6.06348-19.47266,17.79639-19.47266
					c11.72705,0,17.72119,7.73633,17.71582,19.47266v6.05957c0,11.72852-5.98877,19.47461-17.71582,19.47461
					C19.62402,234.79785,13.56055,227.05176,13.56055,215.32324z M20.5835,215.32324c0,8.21094,3.35059,13.32813,10.77881,13.32813
					c7.49756,0,10.68164-5.19043,10.68164-13.32813v-6.05957c0-8.22461-3.26758-13.32324-10.68701-13.32324
					c-7.50293,0-10.77344,5.19238-10.77344,13.32324V215.32324z"/>
				<path fill="#00BBD6" d="M55.36133,194.65918v-3.67188c-0.00879-1.1123,0.63477-1.19629,1.66162-1.19629
					c6.62891,0,12.13184,0.23926,16.68408,2.23535c0.87646,0.40039,1.43408,0.9541,1.43408,1.83984v38.78223
					c0,0.87305-0.63574,1.58984-1.43408,1.58984h-4.14697c-0.87598,0-1.43701-0.7959-1.43701-1.58984v-35.92578
					c-3.03418-0.63281-5.67285-0.78223-11.1001-0.78223C55.51123,195.94043,55.36133,195.53906,55.36133,194.65918z"/>
			</g>
			<g>
				<path fill="#00BBD6" d="M276.87207,248.51758v-2.86523c0-0.86426,0.49023-0.92188,1.3125-0.92188
					c5.15527,0,9.44043,0.17871,12.98535,1.74121c0.68164,0.30371,1.11816,0.74121,1.11816,1.43066v30.19824
					c0,0.67285-0.50586,1.24219-1.11816,1.24219h-3.22559c-0.69043,0-1.12402-0.62402-1.12402-1.24219v-27.95117
					c-2.36621-0.52344-4.41504-0.64941-8.63574-0.6377C276.99512,249.51172,276.87207,249.20117,276.87207,248.51758z"/>
				<path fill="#00BBD6" d="M243.75781,264.61816v-4.72461c0-9.14648,4.71924-15.16309,13.8457-15.16309
					c9.1416,0,13.80469,6.02246,13.80469,15.16309v4.72461c0,9.1377-4.66309,15.15527-13.79883,15.15527
					C248.47705,279.77344,243.75781,273.75586,243.75781,264.61816z M249.21826,264.61816
					c0,6.38672,2.61475,10.36523,8.39111,10.37598c5.84277-0.01074,8.3252-4.04004,8.3252-10.37598v-4.72461
					c0.00586-6.41016-2.53809-10.38184-8.33105-10.38184c-5.8418,0-8.38525,4.04004-8.38525,10.38184V264.61816z"/>
				<path fill="#00BBD6" d="M209.87744,264.61816l0.00635-4.72461c0-9.14063,4.71875-15.16309,13.85449-15.16309
					c9.13477,0,13.79834,6.02246,13.79834,15.16309v4.72461c0,9.12988-4.66357,15.15527-13.79834,15.15527
					C214.60254,279.76563,209.88379,273.74805,209.87744,264.61816z M215.34961,264.61816
					c0,6.38672,2.60596,10.37598,8.38867,10.37598c5.84473-0.01074,8.32666-4.04004,8.32666-10.37598v-4.72461
					c0-6.41016-2.55127-10.38184-8.32666-10.38184c-5.84277,0-8.38867,4.04004-8.38867,10.38184V264.61816z"/>
				<path fill="#00BBD6" d="M187.12158,248.51758l0.00879-2.86523c0-0.86426,0.49463-0.92188,1.30762-0.92188
					c5.15234,0,9.43994,0.17871,12.98584,1.74121c0.67822,0.30371,1.1123,0.74121,1.1123,1.43066v30.19824
					c0,0.67285-0.4917,1.24219-1.1123,1.24219h-3.23535c-0.68457,0-1.11816-0.62402-1.11816-1.24219v-27.96777
					c-2.35352-0.50684-4.4082-0.62109-8.63232-0.62109C187.25391,249.51172,187.13037,249.20117,187.12158,248.51758z"/>
				<path fill="#00BBD6" d="M154.00879,264.61816v-4.72461c0-9.14063,4.71826-15.16309,13.85156-15.16309
					c9.14941-0.01855,13.79541,6.02246,13.79541,15.16309v4.72461c0,9.12988-4.646,15.15527-13.79541,15.15527
					C158.72705,279.77344,154.00879,273.74805,154.00879,264.61816z M159.47461,264.61816
					c0,6.38672,2.60303,10.36523,8.38574,10.37598c5.84424,0,8.33887-4.04004,8.33887-10.37598v-4.72461
					c0-6.41016-2.56348-10.38184-8.33887-10.38184c-5.84033,0-8.38574,4.04004-8.38574,10.38184V264.61816z"/>
				<path fill="#00BBD6" d="M131.2583,248.51758v-2.86523c0-0.86426,0.5-0.92188,1.30762-0.92188
					c5.15283,0,9.44238,0.17871,12.98877,1.74121c0.67871,0.30371,1.10938,0.74121,1.11523,1.43066v30.19824
					c0,0.67285-0.49219,1.24219-1.11523,1.24219h-3.2417c-0.67529,0-1.11475-0.62402-1.11475-1.24219v-27.96777
					c-2.35693-0.50684-4.41113-0.62109-8.63574-0.62109C131.38184,249.51172,131.2583,249.20117,131.2583,248.51758z"/>
				<path fill="#00BBD6" d="M109.26123,248.51758v-2.86523c-0.00635-0.86426,0.48779-0.94043,1.3042-0.92188
					c5.15527,0,9.44824,0.17871,12.98584,1.74121c0.68652,0.30371,1.11475,0.74121,1.11475,1.43066v30.19824
					c0,0.67285-0.49121,1.24219-1.11475,1.24219h-3.23291c-0.68115,0-1.11523-0.62402-1.11523-1.24219v-27.96777
					c-2.3623-0.50684-4.41357-0.62109-8.6377-0.62109C109.38135,249.5,109.26123,249.20117,109.26123,248.51758z"/>
				<path fill="#00BBD6" d="M76.13281,264.61816v-4.72461c0-9.14648,4.71875-15.16309,13.85693-15.16309
					c9.1416-0.01855,13.7959,6.0166,13.7959,15.16309v4.72461c0,9.12988-4.6543,15.15527-13.7959,15.15527
					C80.86035,279.77344,76.13281,273.74805,76.13281,264.61816z M81.60986,264.61816c0,6.38672,2.60986,10.36523,8.37988,10.37598
					c5.84521,0,8.32813-4.04004,8.32813-10.37598l-0.00879-4.72461c0-6.41016-2.53223-10.38184-8.31934-10.38184
					c-5.83887,0-8.37988,4.04004-8.37988,10.38184V264.61816z"/>
			</g>
			<g>
				<path fill="#00BBD6" d="M271.55273,297.33496v-3.55762c0-6.84473,3.5332-11.36523,10.39648-11.36523
					c6.84766,0,10.33887,4.52051,10.33887,11.36523v3.54004c0,6.86133-3.49121,11.3877-10.33887,11.3877
					C275.09277,308.70508,271.55273,304.17871,271.55273,297.33496z M275.65625,297.33496
					c-0.00586,4.80176,1.94727,7.76953,6.28711,7.76953c4.37988,0,6.24707-3.02344,6.24707-7.76953v-3.54785
					c0-4.80566-1.91309-7.78711-6.24707-7.78711c-4.38281,0-6.28711,3.03223-6.28711,7.78711V297.33496z"/>
				<path fill="#00BBD6" d="M246.14941,297.33496v-3.54785c0-6.85449,3.54004-11.375,10.39355-11.375
					c6.84766,0,10.34473,4.52051,10.34473,11.375v3.54785c0,6.84375-3.49707,11.37012-10.34473,11.37012
					C249.68945,308.70508,246.14941,304.17871,246.14941,297.33496z M250.24951,297.33496c0,4.7998,1.95752,7.76953,6.28467,7.76953
					c4.3916,0,6.25391-3.02344,6.24707-7.78711v-3.53027c0.00684-4.80566-1.90723-7.78711-6.24707-7.78711
					c-4.37695,0-6.28467,3.03223-6.28467,7.78711V297.33496z"/>
				<path fill="#00BBD6" d="M229.08594,285.25684v-2.14063c0-0.65332,0.37598-0.7041,0.979-0.7041
					c3.86572,0,7.08154,0.15137,9.73926,1.31055c0.51172,0.23242,0.83594,0.55176,0.84473,1.07129v22.65039
					c-0.00879,0.50586-0.37598,0.93066-0.84473,0.93066h-2.42285c-0.51123,0-0.83887-0.46484-0.83887-0.93066v-20.98145
					C234.7749,286.10156,233.23779,286,230.06494,286C229.17432,286,229.08594,285.78125,229.08594,285.25684z"/>
				<path fill="#00BBD6" d="M204.23682,297.33496v-3.54785c0-6.85449,3.54639-11.375,10.3999-11.375
					c6.84766,0.00293,10.33936,4.52051,10.3457,11.375l-0.00635,3.54785c0,6.84375-3.4917,11.37012-10.33936,11.37012
					C207.7832,308.70508,204.23682,304.17871,204.23682,297.33496z M208.34326,297.33496c0,4.7998,1.94824,7.76953,6.29346,7.76953
					c4.37402,0,6.24121-3.02344,6.24121-7.76953v-3.54785c0-4.80566-1.90771-7.78711-6.24121-7.78711
					c-4.37939,0-6.29346,3.03223-6.29346,7.78711V297.33496z"/>
				<path fill="#00BBD6" d="M187.17578,285.25684v-2.14063c0-0.65332,0.37354-0.7041,0.98633-0.7041
					c3.86182,0,7.08301,0.15137,9.73877,1.31055c0.51123,0.23242,0.83301,0.55176,0.83301,1.07129v22.65039
					c0,0.50586-0.37354,0.93066-0.83301,0.93066h-2.43115c-0.50586,0-0.8335-0.46484-0.8335-0.93066v-20.98145
					C192.86572,286.10156,191.3291,286,188.16211,286C187.26855,286,187.17578,285.78125,187.17578,285.25684z"/>
				<path fill="#00BBD6" d="M170.68164,285.25684l0.00342-2.14063c0-0.65332,0.36719-0.70117,0.97656-0.7041
					c3.86816,0,7.0835,0.15137,9.73877,1.31055c0.51709,0.23242,0.83887,0.55176,0.83887,1.07129v22.65039
					c0,0.50586-0.36768,0.93066-0.83887,0.93066h-2.42529c-0.51221,0-0.83936-0.46484-0.83936-0.93066v-20.98145
					C176.35986,286.10156,174.83398,286,171.66162,286C170.77051,286,170.68506,285.77344,170.68164,285.25684z"/>
				<path fill="#00BBD6" d="M154.18408,285.25684v-2.14063c0-0.65332,0.36816-0.7041,0.97656-0.7041
					c3.86816,0,7.07813,0.13672,9.74268,1.31055c0.50781,0.23242,0.83008,0.55176,0.83594,1.07129v22.65039
					c-0.00586,0.50586-0.37939,0.93066-0.83594,0.93066h-2.42578c-0.51416,0-0.8418-0.46484-0.8418-0.93066v-20.98145
					c-1.77051-0.36133-3.31104-0.46289-6.4751-0.46289C154.27344,286,154.18408,285.78125,154.18408,285.25684z"/>
				<path fill="#00BBD6" d="M129.34375,297.31738l-0.00488-3.53027c0-6.85449,3.53125-11.375,10.38525-11.375
					c6.8623,0,10.35352,4.52051,10.35352,11.375v3.53027c0,6.86133-3.49121,11.3877-10.35352,11.3877
					C132.87305,308.70508,129.33887,304.17871,129.34375,297.31738z M133.43359,297.33496c0,4.7998,1.95996,7.76953,6.29883,7.76953
					c4.37402,0,6.2417-3.02344,6.2417-7.76953v-3.54785c0-4.80566-1.9082-7.78711-6.2417-7.78711
					c-4.37939,0-6.29883,3.03223-6.29883,7.78711V297.33496z"/>
			</g>
			<g>
				<path fill="#00BBD6" d="M284.58203,314.54688v-1.43066c0-0.43066,0.24609-0.46484,0.64844-0.46484
					c2.58105,0,4.72461,0.09668,6.49707,0.86719c0.3418,0.16016,0.55762,0.37988,0.55762,0.72168l-0.00488,15.08887
					c0.00488,0.35156-0.24512,0.62695-0.55273,0.62695h-1.61426c-0.34766,0-0.56055-0.30566-0.56055-0.62695v-13.98242
					c-1.1875-0.23535-2.20703-0.30469-4.32227-0.30469C284.63867,315.04199,284.58203,314.89258,284.58203,314.54688z"/>
				<path fill="#00BBD6" d="M268.01758,322.59277v-2.35645c0-4.5791,2.36133-7.58496,6.92871-7.58496
					c4.56836,0,6.89355,3.00586,6.89355,7.58496v2.35645c0,4.56445-2.32227,7.57813-6.89355,7.57813
					C270.37891,330.1709,268.01758,327.15723,268.01758,322.59277z M270.75098,322.59277c0,3.2002,1.30176,5.18457,4.19824,5.18457
					c2.91602,0,4.16309-2.01172,4.16309-5.18457v-2.35645c0-3.20313-1.27539-5.19434-4.16602-5.19434
					c-2.9209,0-4.19531,2.01758-4.19531,5.19434V322.59277z"/>
				<path fill="#00BBD6" d="M251.08301,322.59277v-2.35645c0-4.5791,2.35645-7.58496,6.92578-7.58496
					c4.57422,0,6.89941,3.00586,6.89941,7.58496v2.35645c0,4.56445-2.3252,7.57813-6.89941,7.57813
					C253.43945,330.1709,251.08301,327.15723,251.08301,322.59277z M253.81934,322.59277c0,3.2002,1.30176,5.18457,4.18945,5.18457
					c2.91895,0,4.16309-2.01172,4.16309-5.18457v-2.35645c0-3.2002-1.2666-5.19434-4.16016-5.19434
					c-2.91992,0-4.19238,2.01758-4.19238,5.19434V322.59277z"/>
				<path fill="#00BBD6" d="M239.70654,314.54688v-1.43066c0-0.43066,0.24951-0.46484,0.65479-0.46484
					c2.57813,0,4.72461,0.09668,6.49463,0.86719c0.33936,0.16016,0.55762,0.37988,0.55762,0.72168v15.08887
					c0,0.35156-0.25,0.62695-0.55762,0.62695h-1.62109c-0.33936,0-0.55713-0.30566-0.55713-0.62695v-13.98242
					c-1.17529-0.24512-2.20459-0.30469-4.31641-0.30469C239.76953,315.04199,239.70654,314.87793,239.70654,314.54688z"/>
				<path fill="#00BBD6" d="M228.70898,314.54688l-0.00244-1.43066c0.00244-0.43066,0.25195-0.46484,0.6543-0.46484
					c2.58154,0,4.71875,0.09668,6.49268,0.86719c0.33545,0.16016,0.56006,0.37988,0.56006,0.72168v15.08887
					c0,0.35156-0.24756,0.62695-0.56006,0.62695h-1.61279c-0.34521,0-0.56348-0.30566-0.56348-0.62695v-13.98242
					c-1.17822-0.24512-2.2002-0.30469-4.31885-0.30469C228.77197,315.04199,228.70898,314.87793,228.70898,314.54688z"/>
				<path fill="#00BBD6" d="M217.70605,314.54688l0.00293-1.43066c0-0.43066,0.24658-0.46484,0.64893-0.46484
					c2.58105,0,4.72168,0.09668,6.48926,0.86719c0.34717,0.16016,0.56641,0.37988,0.56641,0.72168v15.08887
					c0,0.35156-0.25098,0.62695-0.55811,0.62695h-1.61816c-0.34424,0-0.56006-0.30566-0.56006-0.62695l0.00586-13.98242
					c-1.18408-0.24512-2.21045-0.30469-4.3252-0.30469C217.76904,315.04199,217.70898,314.87793,217.70605,314.54688z"/>
				<path fill="#00BBD6" d="M206.70605,314.54688v-1.43066c0-0.43066,0.25-0.46484,0.65479-0.46484
					c2.57227,0,4.72461,0.09668,6.49463,0.86719c0.33838,0.16016,0.55762,0.37988,0.55762,0.72168v15.08887
					c0,0.35156-0.24756,0.62695-0.55762,0.62695h-1.61865c-0.34131,0-0.56006-0.30566-0.56006-0.62695v-13.98242
					c-1.18359-0.24512-2.20361-0.30469-4.31592-0.30469C206.76904,315.04199,206.70605,314.87793,206.70605,314.54688z"/>
				<path fill="#00BBD6" d="M190.14209,322.59277v-2.35645c0-4.5791,2.36523-7.58496,6.92822-7.58496
					c4.57178,0,6.90283,3.00586,6.90283,7.58496v2.35645c0,4.56445-2.33643,7.57813-6.90283,7.57813
					C192.50732,330.1709,190.14209,327.15723,190.14209,322.59277z M192.87744,322.59277c0,3.2002,1.31055,5.18457,4.19287,5.18457
					c2.92236,0,4.16357-2.01172,4.16992-5.18457v-2.35645c0-3.2002-1.2793-5.19434-4.16992-5.19434
					c-2.91992,0-4.19287,2.01758-4.19287,5.19434V322.59277z"/>
			</g>
		</g>
		<g>
			<defs>
				<rect id="SVGID_1_" x="162.79053" y="73.08105" width="78.98486" height="270.63867"/>
			</defs>
			<clipPath id="SVGID_2_">
				<use xlink:href="#SVGID_1_"  overflow="visible"/>
			</clipPath>
			<g clip-path="url(#SVGID_2_)">
				<g>
					<path fill="#FFFFFF" d="M284.37695,95.20215v-1.45898c0-0.44824,0.25-0.47754,0.66602-0.47754
						c2.64746,0,4.85449,0.09277,6.66797,0.8916c0.35645,0.16016,0.58008,0.38379,0.57715,0.73145v15.51563
						c0,0.35059-0.25293,0.6377-0.57422,0.6377h-1.6582c-0.35059,0-0.5752-0.32129-0.5752-0.64355v-14.3623
						c-1.21191-0.25098-2.26758-0.31543-4.43359-0.31543C284.44043,95.7207,284.37695,95.56152,284.37695,95.20215z"/>
					<path fill="#FFFFFF" d="M267.35938,103.47754v-2.43066c0-4.69531,2.42871-7.78125,7.11816-7.78125
						s7.08398,3.09277,7.08398,7.78125v2.43066c0,4.69141-2.39453,7.7832-7.08398,7.7832S267.35938,108.16895,267.35938,103.47754z
						 M270.17285,103.47754c0,3.28809,1.33887,5.3291,4.30469,5.3291c3.00195,0,4.2793-2.08105,4.2793-5.3291v-2.43066
						c0-3.28711-1.30859-5.32617-4.2793-5.32617c-2.99414,0-4.30469,2.07422-4.30469,5.32617V103.47754z"/>
					<path fill="#FFFFFF" d="M249.96875,103.47754v-2.43262c0-4.69336,2.4248-7.7793,7.11816-7.7793
						c4.68945,0,7.08008,3.09277,7.08008,7.78125v2.43066c0,4.69141-2.39063,7.7832-7.08008,7.7832
						C252.39355,111.26074,249.96875,108.16895,249.96875,103.47754z M252.77344,103.47754c0,3.28809,1.34473,5.3291,4.31348,5.3291
						c2.99414,0,4.27246-2.08105,4.2666-5.3291v-2.43066c0.00586-3.28711-1.30176-5.32617-4.2666-5.32617
						c-3.00098,0-4.31348,2.07422-4.31348,5.32617V103.47754z"/>
					<path fill="#FFFFFF" d="M232.5708,103.47754v-2.43066c0-4.69531,2.41992-7.78125,7.11523-7.78125
						c4.69287,0,7.08691,3.09277,7.08691,7.78125v2.43066c0,4.69141-2.39404,7.7832-7.08691,7.7832
						C234.99414,111.26074,232.5708,108.16895,232.5708,103.47754z M235.37939,103.47754
						c-0.00342,3.28809,1.33594,5.3291,4.30664,5.3291c3.00049,0,4.27588-2.08105,4.27588-5.3291v-2.43066
						c0-3.28125-1.30713-5.32617-4.27588-5.32617c-2.99951,0-4.30664,2.07422-4.30664,5.32617V103.47754z"/>
					<path fill="#FFFFFF" d="M220.88184,95.21387v-1.4707c0-0.44824,0.25488-0.47754,0.68018-0.47754
						c2.6416,0,4.84521,0.09277,6.66455,0.8916c0.35352,0.16016,0.57422,0.38379,0.57422,0.73145v15.50977
						c0,0.35645-0.25537,0.64355-0.57422,0.64355h-1.66357c-0.3457,0-0.57227-0.32129-0.57227-0.6377V96.03613
						c-1.20654-0.25098-2.26172-0.31543-4.42871-0.31543C220.94775,95.7207,220.88184,95.56152,220.88184,95.21387z"/>
					<path fill="#FFFFFF" d="M209.58496,95.20215v-1.46777c0-0.43945,0.25635-0.46875,0.67236-0.46875
						c2.6499,0,4.84473,0.09277,6.67285,0.8916c0.35107,0.16016,0.57422,0.38379,0.57422,0.73145v15.51563
						c0,0.35059-0.26367,0.6377-0.57422,0.6377h-1.66162c-0.3501,0-0.57422-0.32129-0.57422-0.6377V96.03613
						c-1.21582-0.25098-2.27051-0.31543-4.43701-0.31543C209.65381,95.7207,209.58496,95.56152,209.58496,95.20215z"/>
					<path fill="#FFFFFF" d="M198.28564,95.21387v-1.47949c0-0.43945,0.25928-0.46875,0.6665-0.46875
						c2.65527,0,4.85693,0.09277,6.67627,0.8916c0.35303,0.16016,0.57178,0.38379,0.57178,0.73145v15.51563
						c0,0.35059-0.25342,0.6377-0.57178,0.6377h-1.65869c-0.35303,0-0.57666-0.32129-0.57666-0.64355v-14.3623
						c-1.21045-0.25098-2.26465-0.31543-4.44092-0.31543C198.34863,95.7207,198.28564,95.56152,198.28564,95.21387z"/>
					<path fill="#FFFFFF" d="M181.27393,103.47754v-2.43066c0-4.68848,2.42871-7.78125,7.11816-7.78125
						c4.69238,0,7.08252,3.09277,7.08252,7.78125v2.43066c0,4.69141-2.39014,7.7832-7.08252,7.7832
						C183.70264,111.26074,181.27393,108.16895,181.27393,103.47754z M184.08447,103.47754c0,3.28809,1.34131,5.3291,4.30762,5.3291
						c2.99707,0,4.27832-2.08105,4.27832-5.3291v-2.43066c0-3.28711-1.30713-5.32617-4.27832-5.32617
						c-2.99756,0-4.30762,2.07422-4.30762,5.32617V103.47754z"/>
				</g>
				<g>
					<path fill="#FFFFFF" d="M280.41406,119.65723v-2.2002c0-0.66797,0.3877-0.71973,1.01172-0.71973
						c3.96875,0,7.27344,0.14355,10,1.33496c0.52344,0.24609,0.86816,0.58594,0.8623,1.09668v23.27539
						c0.00586,0.5332-0.37891,0.96094-0.8623,0.96094h-2.49121c-0.52344,0-0.85938-0.48047-0.85938-0.96094v-21.53418
						c-1.82129-0.39648-3.39063-0.4834-6.64941-0.48926C280.51465,120.42676,280.41406,120.18652,280.41406,119.65723z"/>
					<path fill="#FFFFFF" d="M254.90527,132.05469v-3.63867c0.00293-7.02539,3.62891-11.67871,10.6748-11.67871
						c7.03516,0,10.62109,4.64355,10.62402,11.67871v3.63867c0,7.03906-3.58887,11.68945-10.62402,11.68945
						C258.53418,143.74414,254.90527,139.09375,254.90527,132.05469z M259.10352,132.05469
						c0,4.9248,2.02051,8.00781,6.47656,8.00781c4.5,0,6.41211-3.12109,6.41211-8.00781v-3.63867
						c0-4.92188-1.96875-7.99512-6.41211-7.99512c-4.50488,0-6.4707,3.10742-6.47656,7.99512V132.05469z"/>
					<path fill="#FFFFFF" d="M237.37891,119.65723v-2.2002c0-0.66797,0.38232-0.71973,1-0.71973
						c3.97705,0,7.27881,0.14355,10.00879,1.33496c0.52002,0.24609,0.85938,0.58594,0.85938,1.09668v23.27539
						c0,0.5332-0.38232,0.96094-0.85938,0.96094h-2.49121c-0.53174,0-0.86182-0.48047-0.86182-0.96094v-21.53418
						c-1.81689-0.39648-3.39648-0.48926-6.65576-0.48926C237.4707,120.4209,237.37891,120.18652,237.37891,119.65723z"/>
					<path fill="#FFFFFF" d="M211.85498,132.05469l0.00635-3.63867c0-7.03516,3.63184-11.67871,10.67188-11.67871
						c7.04102,0,10.62988,4.65332,10.62988,11.67871v3.63867c0,7.03906-3.58887,11.68945-10.62988,11.68945
						C215.49316,143.74414,211.86133,139.09375,211.85498,132.05469z M216.07129,132.05469
						c-0.00391,4.9248,2.01123,8,6.46191,7.99414c4.5,0.01367,6.41455-3.10742,6.41455-7.99414v-3.63867
						c0-4.92188-1.95703-7.98926-6.41455-7.99512c-4.50537,0.00586-6.45996,3.10742-6.46582,7.99512L216.07129,132.05469z"/>
					<path fill="#FFFFFF" d="M194.33203,119.65723v-2.2002c0-0.66797,0.38477-0.71973,1.00537-0.71973
						c3.96533,0,7.27588,0.14355,10.00098,1.33496c0.53418,0.24609,0.86426,0.58594,0.86426,1.11035v23.26172
						c0,0.5332-0.37939,0.96094-0.86426,0.96094h-2.48877c-0.52393,0-0.85693-0.48047-0.85986-0.96094v-21.53418
						c-1.82178-0.39648-3.40234-0.48926-6.65234-0.4834C194.42676,120.4209,194.33203,120.18652,194.33203,119.65723z"/>
					<path fill="#FFFFFF" d="M177.3833,119.65723v-2.2002c0-0.66797,0.37891-0.71973,1.00537-0.71973
						c3.97168,0,7.27588,0.14355,10.00586,1.33496c0.52051,0.24609,0.85938,0.58594,0.85938,1.11035v23.25977
						c0,0.53516-0.37598,0.96289-0.85938,0.96582l-2.49414-0.00293c-0.52588,0-0.85645-0.48047-0.85645-0.96094l-0.00537-21.53418
						c-1.81641-0.39648-3.3999-0.4834-6.6499-0.4834C177.47998,120.42676,177.3833,120.18652,177.3833,119.65723z"/>
					<path fill="#FFFFFF" d="M160.43408,119.65723v-2.2002c0-0.66797,0.37646-0.71973,1.00635-0.71973
						c3.9707,0,7.27539,0.14355,10,1.33496c0.52832,0.24609,0.86426,0.58594,0.86426,1.11035v23.25977
						c0,0.53516-0.38184,0.96289-0.86426,0.96289h-2.48877c-0.52246,0-0.85889-0.48047-0.85889-0.96094v-21.53418
						c-1.82471-0.39648-3.39453-0.48926-6.65234-0.4834C160.52637,120.42676,160.43408,120.18652,160.43408,119.65723z"/>
					<path fill="#FFFFFF" d="M134.91016,132.05469l0.00635-3.63867c-0.00635-7.03516,3.63232-11.67871,10.66699-11.67871
						c7.0459,0,10.63232,4.64355,10.63574,11.67871l-0.00342,3.63867c0.00342,7.03906-3.58643,11.68945-10.63232,11.68945
						C138.54883,143.74414,134.9165,139.09375,134.91016,132.05469z M139.12939,132.05469c0,4.9248,2.01123,8.00781,6.4541,8
						c4.50537,0,6.41943-3.11328,6.41943-8v-3.63867c0-4.92188-1.9624-7.99512-6.41943-7.98926
						c-4.49707,0-6.4541,3.10156-6.46045,7.98926L139.12939,132.05469z"/>
				</g>
				<g>
					<path fill="#FFFFFF" d="M276.45801,152.6582l0.00781-2.9541c-0.00781-0.89551,0.51172-0.94922,1.33301-0.94922
						c5.29883,0,9.70215,0.1875,13.33691,1.79102c0.70996,0.31934,1.14941,0.75879,1.14941,1.45703v31.03027
						c0,0.7041-0.49707,1.27539-1.14941,1.27539h-3.31348c-0.70117,0-1.14941-0.63184-1.14941-1.27539v-28.73145
						c-2.41699-0.51074-4.53711-0.63379-8.87402-0.63379C276.58984,153.66797,276.46582,153.35742,276.45801,152.6582z"/>
					<path fill="#FFFFFF" d="M242.43359,169.18164v-4.85059c0-9.37988,4.85889-15.57617,14.23926-15.57617
						c9.37891,0,14.17285,6.19629,14.17285,15.57617v4.85059c0,9.39063-4.79395,15.57324-14.17871,15.57324
						C247.29248,184.75488,242.43359,178.57227,242.43359,169.18164z M248.05127,169.18164
						c0,6.5752,2.68457,10.64453,8.61572,10.64453c6.00586,0,8.55762-4.13281,8.55762-10.64453v-4.85059
						c0-6.58008-2.61816-10.66309-8.55176-10.66309c-5.9917,0-8.62158,4.14551-8.62158,10.66309V169.18164z"/>
					<path fill="#FFFFFF" d="M207.63965,169.18164v-4.85059c0-9.37988,4.85645-15.57617,14.23877-15.57617
						c9.38525,0,14.16699,6.19629,14.16699,15.57617v4.85059c0,9.39063-4.78174,15.57324-14.17285,15.57324
						C212.49609,184.75488,207.63965,178.57227,207.63965,169.18164z M213.26025,169.18164
						c0,6.5752,2.67822,10.64453,8.6123,10.64453c6.00586,0,8.55713-4.13281,8.55713-10.64453v-4.85059
						c0-6.58008-2.61719-10.66309-8.55713-10.66309c-5.99463,0-8.6123,4.14551-8.6123,10.66309V169.18164z"/>
					<path fill="#FFFFFF" d="M172.854,169.18164v-4.85059c0-9.37988,4.84473-15.57617,14.23047-15.57617
						c9.38477,0,14.16992,6.19629,14.16992,15.57617v4.85059c0,9.39063-4.78516,15.57324-14.16992,15.57324
						C177.69873,184.75488,172.854,178.57227,172.854,169.18164z M178.46924,169.18164c0,6.5752,2.67871,10.64453,8.62109,10.64453
						c5.98877,0,8.54346-4.13281,8.54346-10.64453v-4.85059c0-6.58008-2.6123-10.66309-8.54932-10.66309
						c-6.00049,0-8.61523,4.14551-8.61523,10.66309V169.18164z"/>
					<path fill="#FFFFFF" d="M138.06055,169.18164v-4.85059c0-9.37988,4.84424-15.57617,14.23242-15.57617
						c9.38525,0,14.16699,6.19629,14.17041,15.57617v4.85059c0,9.39063-4.78809,15.57324-14.17041,15.57324
						C142.90479,184.75488,138.04883,178.57227,138.06055,169.18164z M143.67871,169.18164
						c0,6.5752,2.67188,10.64453,8.61426,10.6582c5.99463-0.01367,8.54883-4.14648,8.54883-10.6582v-4.85059
						c0-6.58008-2.60547-10.66309-8.54883-10.66309c-5.99658,0-8.61426,4.14551-8.61426,10.66309V169.18164z"/>
					<path fill="#FFFFFF" d="M114.69141,152.6582v-2.9541c0-0.89551,0.51172-0.94922,1.33936-0.94922
						c5.29297,0,9.70117,0.1875,13.34521,1.79102c0.69238,0.31934,1.14111,0.75879,1.146,1.45703l-0.00488,31.03027
						c0.00488,0.7041-0.50879,1.27539-1.14111,1.27539h-3.31885c-0.70752,0-1.1582-0.63184-1.15283-1.27539v-28.73145
						c-2.43115-0.51074-4.53174-0.63379-8.87354-0.63379C114.81836,153.66797,114.69141,153.35742,114.69141,152.6582z"/>
					<path fill="#FFFFFF" d="M92.08789,152.6582v-2.9541c0-0.89551,0.52002-0.94922,1.34473-0.94922
						c5.29932,0,9.70117,0.1875,13.33887,1.79102c0.70459,0.31934,1.14453,0.75879,1.14453,1.45703v31.03027
						c0,0.7041-0.50586,1.27539-1.14453,1.27539h-3.31543c-0.7041,0-1.15283-0.63184-1.15283-1.27539l0.00244-28.73145
						c-2.43018-0.51074-4.53418-0.63379-8.87305-0.63379C92.22559,153.66797,92.08789,153.35742,92.08789,152.6582z"/>
					<path fill="#FFFFFF" d="M58.06348,169.18164l0.01172-4.85059c-0.01172-9.37988,4.83936-15.57617,14.22461-15.57617
						c9.37988,0,14.16699,6.19629,14.16699,15.57617v4.85059c0,9.39063-4.78711,15.57324-14.16699,15.57324
						C62.91455,184.75488,58.06348,178.57227,58.06348,169.18164z M63.68457,169.18164c0,6.56934,2.68115,10.64453,8.61523,10.64453
						c5.99707,0,8.55469-4.13281,8.55469-10.64453v-4.85059c0-6.58008-2.61475-10.66309-8.55469-10.66309
						c-6,0-8.61523,4.14551-8.61523,10.66309V169.18164z"/>
				</g>
				<g>
					<path fill="#FFFFFF" d="M256.77637,215.32324v-6.05957c0.01172-11.73633,6.07129-19.47266,17.79883-19.47266
						c11.7334,0,17.71289,7.73633,17.71289,19.47266l-0.00293,6.05957c0,11.72852-5.9707,19.47461-17.70996,19.47461
						C262.84766,234.79785,256.77637,227.05176,256.77637,215.32324z M263.80469,215.32324
						c0,8.21094,3.34473,13.32813,10.77051,13.32813c7.50586,0,10.69043-5.19043,10.69043-13.32813v-6.05957
						c0-8.22461-3.26758-13.32324-10.6875-13.32324c-7.50293,0-10.77344,5.19238-10.77344,13.32324V215.32324z"/>
					<path fill="#FFFFFF" d="M213.29199,215.32129l0.00586-6.05762c0-11.73633,6.05762-19.47266,17.79053-19.47266
						c11.72168,0,17.71094,7.73633,17.71094,19.47266v6.05957c0,11.72852-5.98926,19.47461-17.71094,19.47461
						C219.35547,234.79785,213.29785,227.05176,213.29199,215.32129z M220.30908,215.32324
						c0,8.21094,3.36182,13.32813,10.7793,13.32813c7.49756,0,10.68701-5.19043,10.68701-13.32813v-6.05957
						c0-8.22461-3.26465-13.32324-10.68701-13.32324c-7.50586,0-10.7793,5.19238-10.7793,13.32324V215.32324z"/>
					<path fill="#FFFFFF" d="M184.08105,194.65918v-3.67188c0-1.1123,0.6499-1.19629,1.67578-1.19629
						c6.62988,0,12.13818,0.23926,16.68115,2.23535c0.87061,0.40039,1.42822,0.9541,1.42822,1.83984v38.78223
						c0,0.87305-0.62939,1.58984-1.42822,1.58984h-4.14941c-0.88428,0-1.43945-0.7959-1.43945-1.58984v-35.92578
						c-3.03467-0.63281-5.66113-0.78223-11.09229-0.78223C184.23633,195.94043,184.08105,195.53906,184.08105,194.65918z"/>
					<path fill="#FFFFFF" d="M155.82764,194.65918v-3.67188c0-1.1123,0.64355-1.19629,1.67822-1.19629
						c6.62988,0,12.12988,0.22461,16.68408,2.23535c0.87451,0.40039,1.43701,0.9541,1.43701,1.83984v38.78223
						c0,0.87305-0.62939,1.58984-1.43701,1.58984h-4.16064c-0.86475,0-1.42871-0.7959-1.42871-1.58984v-35.92578
						c-3.04004-0.63281-5.66943-0.78223-11.09473-0.78223C155.99414,195.94043,155.82764,195.53906,155.82764,194.65918z"/>
					<path fill="#FFFFFF" d="M113.30127,215.32324v-6.05957c0.00537-11.73633,6.06885-19.47266,17.79346-19.47266
						c11.73584,0,17.71875,7.73633,17.71875,19.47266v6.05957c0,11.72852-5.98291,19.47461-17.71875,19.47461
						C119.37012,234.79785,113.30127,227.05176,113.30127,215.32324z M120.32715,215.32324
						c0,8.21094,3.3418,13.32813,10.76758,13.32813c7.50537,0,10.69482-5.19043,10.68994-13.32813v-6.05957
						c0-8.22461-3.26465-13.32324-10.68994-13.32324c-7.50635,0-10.76758,5.19238-10.76758,13.32324V215.32324z"/>
					<path fill="#FFFFFF" d="M84.09912,194.65918v-3.67188c0-1.1123,0.63232-1.19629,1.67188-1.19629
						c6.61816,0,12.13281,0.23926,16.67871,2.23535c0.87402,0.40039,1.43408,0.9541,1.43408,1.83984v38.78223
						c0,0.87305-0.63477,1.58984-1.43408,1.58984h-4.15479c-0.86816,0-1.43457-0.7959-1.43457-1.58984l0.00293-35.92578
						c-3.03955-0.63281-5.66602-0.78223-11.09229-0.78223C84.25439,195.94043,84.09912,195.53906,84.09912,194.65918z"/>
					<path fill="#FFFFFF" d="M41.56055,215.32324v-6.05957c0-11.73633,6.06348-19.47266,17.79639-19.47266
						c11.72705,0,17.72119,7.73633,17.71582,19.47266v6.05957c0,11.72852-5.98877,19.47461-17.71582,19.47461
						C47.62402,234.79785,41.56055,227.05176,41.56055,215.32324z M48.5835,215.32324c0,8.21094,3.35059,13.32813,10.77881,13.32813
						c7.49756,0,10.68164-5.19043,10.68164-13.32813v-6.05957c0-8.22461-3.26758-13.32324-10.68701-13.32324
						c-7.50293,0-10.77344,5.19238-10.77344,13.32324V215.32324z"/>
					<path fill="#FFFFFF" d="M12.36133,194.65918v-3.67188c-0.00879-1.1123,0.63477-1.19629,1.66162-1.19629
						c6.62891,0,12.13184,0.23926,16.68408,2.23535c0.87646,0.40039,1.43408,0.9541,1.43408,1.83984v38.78223
						c0,0.87305-0.63574,1.58984-1.43408,1.58984h-4.14697c-0.87598,0-1.43701-0.7959-1.43701-1.58984v-35.92578
						c-3.03418-0.63281-5.67285-0.78223-11.1001-0.78223C12.51123,195.94043,12.36133,195.53906,12.36133,194.65918z"/>
				</g>
				<g>
					<path fill="#FFFFFF" d="M276.87207,248.51758v-2.86523c0-0.86426,0.49023-0.92188,1.3125-0.92188
						c5.15527,0,9.44043,0.17871,12.98535,1.74121c0.68164,0.30371,1.11816,0.74121,1.11816,1.43066v30.19824
						c0,0.67285-0.50586,1.24219-1.11816,1.24219h-3.22559c-0.69043,0-1.12402-0.62402-1.12402-1.24219v-27.95117
						c-2.36621-0.52344-4.41504-0.64941-8.63574-0.6377C276.99512,249.51172,276.87207,249.20117,276.87207,248.51758z"/>
					<path fill="#FFFFFF" d="M243.75781,264.61816v-4.72461c0-9.14648,4.71924-15.16309,13.8457-15.16309
						c9.1416,0,13.80469,6.02246,13.80469,15.16309v4.72461c0,9.1377-4.66309,15.15527-13.79883,15.15527
						C248.47705,279.77344,243.75781,273.75586,243.75781,264.61816z M249.21826,264.61816
						c0,6.38672,2.61475,10.36523,8.39111,10.37598c5.84277-0.01074,8.3252-4.04004,8.3252-10.37598v-4.72461
						c0.00586-6.41016-2.53809-10.38184-8.33105-10.38184c-5.8418,0-8.38525,4.04004-8.38525,10.38184V264.61816z"/>
					<path fill="#FFFFFF" d="M209.87744,264.61816l0.00635-4.72461c0-9.14063,4.71875-15.16309,13.85449-15.16309
						c9.13477,0,13.79834,6.02246,13.79834,15.16309v4.72461c0,9.12988-4.66357,15.15527-13.79834,15.15527
						C214.60254,279.76563,209.88379,273.74805,209.87744,264.61816z M215.34961,264.61816
						c0,6.38672,2.60596,10.37598,8.38867,10.37598c5.84473-0.01074,8.32666-4.04004,8.32666-10.37598v-4.72461
						c0-6.41016-2.55127-10.38184-8.32666-10.38184c-5.84277,0-8.38867,4.04004-8.38867,10.38184V264.61816z"/>
					<path fill="#FFFFFF" d="M187.12158,248.51758l0.00879-2.86523c0-0.86426,0.49463-0.92188,1.30762-0.92188
						c5.15234,0,9.43994,0.17871,12.98584,1.74121c0.67822,0.30371,1.1123,0.74121,1.1123,1.43066v30.19824
						c0,0.67285-0.4917,1.24219-1.1123,1.24219h-3.23535c-0.68457,0-1.11816-0.62402-1.11816-1.24219v-27.96777
						c-2.35352-0.50684-4.4082-0.62109-8.63232-0.62109C187.25391,249.51172,187.13037,249.20117,187.12158,248.51758z"/>
					<path fill="#FFFFFF" d="M154.00879,264.61816v-4.72461c0-9.14063,4.71826-15.16309,13.85156-15.16309
						c9.14941-0.01855,13.79541,6.02246,13.79541,15.16309v4.72461c0,9.12988-4.646,15.15527-13.79541,15.15527
						C158.72705,279.77344,154.00879,273.74805,154.00879,264.61816z M159.47461,264.61816
						c0,6.38672,2.60303,10.36523,8.38574,10.37598c5.84424,0,8.33887-4.04004,8.33887-10.37598v-4.72461
						c0-6.41016-2.56348-10.38184-8.33887-10.38184c-5.84033,0-8.38574,4.04004-8.38574,10.38184V264.61816z"/>
					<path fill="#FFFFFF" d="M131.2583,248.51758v-2.86523c0-0.86426,0.5-0.92188,1.30762-0.92188
						c5.15283,0,9.44238,0.17871,12.98877,1.74121c0.67871,0.30371,1.10938,0.74121,1.11523,1.43066v30.19824
						c0,0.67285-0.49219,1.24219-1.11523,1.24219h-3.2417c-0.67529,0-1.11475-0.62402-1.11475-1.24219v-27.96777
						c-2.35693-0.50684-4.41113-0.62109-8.63574-0.62109C131.38184,249.51172,131.2583,249.20117,131.2583,248.51758z"/>
					<path fill="#FFFFFF" d="M109.26123,248.51758v-2.86523c-0.00635-0.86426,0.48779-0.94043,1.3042-0.92188
						c5.15527,0,9.44824,0.17871,12.98584,1.74121c0.68652,0.30371,1.11475,0.74121,1.11475,1.43066v30.19824
						c0,0.67285-0.49121,1.24219-1.11475,1.24219h-3.23291c-0.68115,0-1.11523-0.62402-1.11523-1.24219v-27.96777
						c-2.3623-0.50684-4.41357-0.62109-8.6377-0.62109C109.38135,249.5,109.26123,249.20117,109.26123,248.51758z"/>
					<path fill="#FFFFFF" d="M76.13281,264.61816v-4.72461c0-9.14648,4.71875-15.16309,13.85693-15.16309
						c9.1416-0.01855,13.7959,6.0166,13.7959,15.16309v4.72461c0,9.12988-4.6543,15.15527-13.7959,15.15527
						C80.86035,279.77344,76.13281,273.74805,76.13281,264.61816z M81.60986,264.61816c0,6.38672,2.60986,10.36523,8.37988,10.37598
						c5.84521,0,8.32813-4.04004,8.32813-10.37598l-0.00879-4.72461c0-6.41016-2.53223-10.38184-8.31934-10.38184
						c-5.83887,0-8.37988,4.04004-8.37988,10.38184V264.61816z"/>
				</g>
				<g>
					<path fill="#FFFFFF" d="M271.55273,297.33496v-3.55762c0-6.84473,3.5332-11.36523,10.39648-11.36523
						c6.84766,0,10.33887,4.52051,10.33887,11.36523v3.54004c0,6.86133-3.49121,11.3877-10.33887,11.3877
						C275.09277,308.70508,271.55273,304.17871,271.55273,297.33496z M275.65625,297.33496
						c-0.00586,4.80176,1.94727,7.76953,6.28711,7.76953c4.37988,0,6.24707-3.02344,6.24707-7.76953v-3.54785
						c0-4.80566-1.91309-7.78711-6.24707-7.78711c-4.38281,0-6.28711,3.03223-6.28711,7.78711V297.33496z"/>
					<path fill="#FFFFFF" d="M246.14941,297.33496v-3.54785c0-6.85449,3.54004-11.375,10.39355-11.375
						c6.84766,0,10.34473,4.52051,10.34473,11.375v3.54785c0,6.84375-3.49707,11.37012-10.34473,11.37012
						C249.68945,308.70508,246.14941,304.17871,246.14941,297.33496z M250.24951,297.33496
						c0,4.7998,1.95752,7.76953,6.28467,7.76953c4.3916,0,6.25391-3.02344,6.24707-7.78711v-3.53027
						c0.00684-4.80566-1.90723-7.78711-6.24707-7.78711c-4.37695,0-6.28467,3.03223-6.28467,7.78711V297.33496z"/>
					<path fill="#FFFFFF" d="M229.08594,285.25684v-2.14063c0-0.65332,0.37598-0.7041,0.979-0.7041
						c3.86572,0,7.08154,0.15137,9.73926,1.31055c0.51172,0.23242,0.83594,0.55176,0.84473,1.07129v22.65039
						c-0.00879,0.50586-0.37598,0.93066-0.84473,0.93066h-2.42285c-0.51123,0-0.83887-0.46484-0.83887-0.93066v-20.98145
						C234.7749,286.10156,233.23779,286,230.06494,286C229.17432,286,229.08594,285.78125,229.08594,285.25684z"/>
					<path fill="#FFFFFF" d="M204.23682,297.33496v-3.54785c0-6.85449,3.54639-11.375,10.3999-11.375
						c6.84766,0.00293,10.33936,4.52051,10.3457,11.375l-0.00635,3.54785c0,6.84375-3.4917,11.37012-10.33936,11.37012
						C207.7832,308.70508,204.23682,304.17871,204.23682,297.33496z M208.34326,297.33496c0,4.7998,1.94824,7.76953,6.29346,7.76953
						c4.37402,0,6.24121-3.02344,6.24121-7.76953v-3.54785c0-4.80566-1.90771-7.78711-6.24121-7.78711
						c-4.37939,0-6.29346,3.03223-6.29346,7.78711V297.33496z"/>
					<path fill="#FFFFFF" d="M187.17578,285.25684v-2.14063c0-0.65332,0.37354-0.7041,0.98633-0.7041
						c3.86182,0,7.08301,0.15137,9.73877,1.31055c0.51123,0.23242,0.83301,0.55176,0.83301,1.07129v22.65039
						c0,0.50586-0.37354,0.93066-0.83301,0.93066h-2.43115c-0.50586,0-0.8335-0.46484-0.8335-0.93066v-20.98145
						C192.86572,286.10156,191.3291,286,188.16211,286C187.26855,286,187.17578,285.78125,187.17578,285.25684z"/>
					<path fill="#FFFFFF" d="M170.68164,285.25684l0.00342-2.14063c0-0.65332,0.36719-0.70117,0.97656-0.7041
						c3.86816,0,7.0835,0.15137,9.73877,1.31055c0.51709,0.23242,0.83887,0.55176,0.83887,1.07129v22.65039
						c0,0.50586-0.36768,0.93066-0.83887,0.93066h-2.42529c-0.51221,0-0.83936-0.46484-0.83936-0.93066v-20.98145
						C176.35986,286.10156,174.83398,286,171.66162,286C170.77051,286,170.68506,285.77344,170.68164,285.25684z"/>
					<path fill="#FFFFFF" d="M154.18408,285.25684v-2.14063c0-0.65332,0.36816-0.7041,0.97656-0.7041
						c3.86816,0,7.07813,0.13672,9.74268,1.31055c0.50781,0.23242,0.83008,0.55176,0.83594,1.07129v22.65039
						c-0.00586,0.50586-0.37939,0.93066-0.83594,0.93066h-2.42578c-0.51416,0-0.8418-0.46484-0.8418-0.93066v-20.98145
						c-1.77051-0.36133-3.31104-0.46289-6.4751-0.46289C154.27344,286,154.18408,285.78125,154.18408,285.25684z"/>
					<path fill="#FFFFFF" d="M129.34375,297.31738l-0.00488-3.53027c0-6.85449,3.53125-11.375,10.38525-11.375
						c6.8623,0,10.35352,4.52051,10.35352,11.375v3.53027c0,6.86133-3.49121,11.3877-10.35352,11.3877
						C132.87305,308.70508,129.33887,304.17871,129.34375,297.31738z M133.43359,297.33496
						c0,4.7998,1.95996,7.76953,6.29883,7.76953c4.37402,0,6.2417-3.02344,6.2417-7.76953v-3.54785
						c0-4.80566-1.9082-7.78711-6.2417-7.78711c-4.37939,0-6.29883,3.03223-6.29883,7.78711V297.33496z"/>
				</g>
				<g>
					<path fill="#FFFFFF" d="M284.58203,314.54688v-1.43066c0-0.43066,0.24609-0.46484,0.64844-0.46484
						c2.58105,0,4.72461,0.09668,6.49707,0.86719c0.3418,0.16016,0.55762,0.37988,0.55762,0.72168l-0.00488,15.08887
						c0.00488,0.35156-0.24512,0.62695-0.55273,0.62695h-1.61426c-0.34766,0-0.56055-0.30566-0.56055-0.62695v-13.98242
						c-1.1875-0.23535-2.20703-0.30469-4.32227-0.30469C284.63867,315.04199,284.58203,314.89258,284.58203,314.54688z"/>
					<path fill="#FFFFFF" d="M268.01758,322.59277v-2.35645c0-4.5791,2.36133-7.58496,6.92871-7.58496
						c4.56836,0,6.89355,3.00586,6.89355,7.58496v2.35645c0,4.56445-2.32227,7.57813-6.89355,7.57813
						C270.37891,330.1709,268.01758,327.15723,268.01758,322.59277z M270.75098,322.59277c0,3.2002,1.30176,5.18457,4.19824,5.18457
						c2.91602,0,4.16309-2.01172,4.16309-5.18457v-2.35645c0-3.20313-1.27539-5.19434-4.16602-5.19434
						c-2.9209,0-4.19531,2.01758-4.19531,5.19434V322.59277z"/>
					<path fill="#FFFFFF" d="M251.08301,322.59277v-2.35645c0-4.5791,2.35645-7.58496,6.92578-7.58496
						c4.57422,0,6.89941,3.00586,6.89941,7.58496v2.35645c0,4.56445-2.3252,7.57813-6.89941,7.57813
						C253.43945,330.1709,251.08301,327.15723,251.08301,322.59277z M253.81934,322.59277c0,3.2002,1.30176,5.18457,4.18945,5.18457
						c2.91895,0,4.16309-2.01172,4.16309-5.18457v-2.35645c0-3.2002-1.2666-5.19434-4.16016-5.19434
						c-2.91992,0-4.19238,2.01758-4.19238,5.19434V322.59277z"/>
					<path fill="#FFFFFF" d="M239.70654,314.54688v-1.43066c0-0.43066,0.24951-0.46484,0.65479-0.46484
						c2.57813,0,4.72461,0.09668,6.49463,0.86719c0.33936,0.16016,0.55762,0.37988,0.55762,0.72168v15.08887
						c0,0.35156-0.25,0.62695-0.55762,0.62695h-1.62109c-0.33936,0-0.55713-0.30566-0.55713-0.62695v-13.98242
						c-1.17529-0.24512-2.20459-0.30469-4.31641-0.30469C239.76953,315.04199,239.70654,314.87793,239.70654,314.54688z"/>
					<path fill="#FFFFFF" d="M228.70898,314.54688l-0.00244-1.43066c0.00244-0.43066,0.25195-0.46484,0.6543-0.46484
						c2.58154,0,4.71875,0.09668,6.49268,0.86719c0.33545,0.16016,0.56006,0.37988,0.56006,0.72168v15.08887
						c0,0.35156-0.24756,0.62695-0.56006,0.62695h-1.61279c-0.34521,0-0.56348-0.30566-0.56348-0.62695v-13.98242
						c-1.17822-0.24512-2.2002-0.30469-4.31885-0.30469C228.77197,315.04199,228.70898,314.87793,228.70898,314.54688z"/>
					<path fill="#FFFFFF" d="M217.70605,314.54688l0.00293-1.43066c0-0.43066,0.24658-0.46484,0.64893-0.46484
						c2.58105,0,4.72168,0.09668,6.48926,0.86719c0.34717,0.16016,0.56641,0.37988,0.56641,0.72168v15.08887
						c0,0.35156-0.25098,0.62695-0.55811,0.62695h-1.61816c-0.34424,0-0.56006-0.30566-0.56006-0.62695l0.00586-13.98242
						c-1.18408-0.24512-2.21045-0.30469-4.3252-0.30469C217.76904,315.04199,217.70898,314.87793,217.70605,314.54688z"/>
					<path fill="#FFFFFF" d="M206.70605,314.54688v-1.43066c0-0.43066,0.25-0.46484,0.65479-0.46484
						c2.57227,0,4.72461,0.09668,6.49463,0.86719c0.33838,0.16016,0.55762,0.37988,0.55762,0.72168v15.08887
						c0,0.35156-0.24756,0.62695-0.55762,0.62695h-1.61865c-0.34131,0-0.56006-0.30566-0.56006-0.62695v-13.98242
						c-1.18359-0.24512-2.20361-0.30469-4.31592-0.30469C206.76904,315.04199,206.70605,314.87793,206.70605,314.54688z"/>
					<path fill="#FFFFFF" d="M190.14209,322.59277v-2.35645c0-4.5791,2.36523-7.58496,6.92822-7.58496
						c4.57178,0,6.90283,3.00586,6.90283,7.58496v2.35645c0,4.56445-2.33643,7.57813-6.90283,7.57813
						C192.50732,330.1709,190.14209,327.15723,190.14209,322.59277z M192.87744,322.59277c0,3.2002,1.31055,5.18457,4.19287,5.18457
						c2.92236,0,4.16357-2.01172,4.16992-5.18457v-2.35645c0-3.2002-1.2793-5.19434-4.16992-5.19434
						c-2.91992,0-4.19287,2.01758-4.19287,5.19434V322.59277z"/>
				</g>
			</g>
		</g>
	</g>
	<rect id="_x3C_Slice_x3E__1_" x="6" fill="none" width="1662.37793" height="425"/>
</g>
</svg>
